<svg width="170" height="81" viewBox="0 0 170 81" fill="none" xmlns="http://www.w3.org/2000/svg">
<g opacity="0.8" filter="url(#filter0_d_7_21)">
<path d="M2.20508 24L9.69608 3.573C10.0701 2.561 10.6861 1.802 11.5441 1.296C12.4021 0.767999 13.3701 0.504 14.4481 0.504C15.5261 0.504 16.4941 0.757 17.3521 1.263C18.2101 1.747 18.8261 2.506 19.2001 3.54L26.7241 24H20.7511L19.2991 19.545H9.49808L7.98008 24H2.20508ZM10.9171 14.958H17.8801L14.9431 5.751C14.8991 5.619 14.8331 5.531 14.7451 5.487C14.6791 5.421 14.5911 5.388 14.4811 5.388C14.3711 5.388 14.2721 5.421 14.1841 5.487C14.1181 5.553 14.0741 5.641 14.0521 5.751L10.9171 14.958ZM28.2145 24V19.38H32.2075V5.52H28.2145V0.899998H41.7115V5.52H37.7185V19.38H41.7115V24H28.2145Z" fill="#E6A1F3"/>
<path d="M70.2127 24.396C68.8707 24.396 67.6387 24.099 66.5167 23.505C65.4167 22.911 64.5367 22.086 63.8767 21.03C63.2387 19.974 62.9197 18.72 62.9197 17.268V7.203C62.9197 6.851 62.8317 6.532 62.6557 6.246C62.4797 5.96 62.2487 5.729 61.9627 5.553C61.6767 5.377 61.3577 5.289 61.0057 5.289C60.6537 5.289 60.3347 5.377 60.0487 5.553C59.7627 5.729 59.5317 5.96 59.3557 6.246C59.2017 6.532 59.1247 6.851 59.1247 7.203V24H53.7127V7.599C53.7127 6.213 54.0207 4.992 54.6367 3.936C55.2747 2.88 56.1437 2.044 57.2437 1.428C58.3657 0.812 59.6197 0.504 61.0057 0.504C62.4137 0.504 63.6677 0.812 64.7677 1.428C65.8677 2.044 66.7367 2.88 67.3747 3.936C68.0127 4.992 68.3317 6.213 68.3317 7.599V17.664C68.3317 18.038 68.4197 18.368 68.5957 18.654C68.7717 18.94 68.9917 19.171 69.2557 19.347C69.5417 19.501 69.8497 19.578 70.1797 19.578C70.5317 19.578 70.8507 19.501 71.1367 19.347C71.4447 19.171 71.6867 18.94 71.8627 18.654C72.0387 18.368 72.1267 18.038 72.1267 17.664V7.599C72.1267 6.213 72.4457 4.992 73.0837 3.936C73.7217 2.88 74.5907 2.044 75.6907 1.428C76.8127 0.812 78.0557 0.504 79.4197 0.504C80.8277 0.504 82.0707 0.812 83.1487 1.428C84.2487 2.044 85.1177 2.88 85.7557 3.936C86.3937 4.992 86.7127 6.213 86.7127 7.599V24H81.3007V7.17C81.3007 6.818 81.2127 6.51 81.0367 6.246C80.8827 5.96 80.6627 5.729 80.3767 5.553C80.0907 5.377 79.7717 5.289 79.4197 5.289C79.0897 5.289 78.7707 5.377 78.4627 5.553C78.1767 5.729 77.9457 5.96 77.7697 6.246C77.5937 6.51 77.5057 6.818 77.5057 7.17V17.268C77.5057 18.72 77.1757 19.974 76.5157 21.03C75.8557 22.086 74.9757 22.911 73.8757 23.505C72.7757 24.099 71.5547 24.396 70.2127 24.396ZM99.2658 24C97.3518 24 95.6688 23.648 94.2168 22.944C92.7648 22.218 91.6318 21.228 90.8178 19.974C90.0258 18.698 89.6298 17.224 89.6298 15.552C89.6298 13.704 90.0148 12.12 90.7848 10.8C91.5548 9.48 92.5778 8.468 93.8538 7.764C95.1518 7.038 96.5818 6.675 98.1438 6.675C99.9258 6.675 101.411 7.049 102.599 7.797C103.809 8.545 104.722 9.568 105.338 10.866C105.954 12.142 106.262 13.605 106.262 15.255C106.262 15.541 106.24 15.882 106.196 16.278C106.174 16.652 106.141 16.949 106.097 17.169H95.0088C95.1408 17.741 95.3938 18.225 95.7678 18.621C96.1418 19.017 96.6148 19.314 97.1868 19.512C97.7588 19.688 98.3968 19.776 99.1008 19.776H104.282V24H99.2658ZM94.8768 13.968H101.312C101.268 13.616 101.202 13.275 101.114 12.945C101.026 12.615 100.883 12.329 100.685 12.087C100.509 11.823 100.3 11.603 100.058 11.427C99.8158 11.229 99.5298 11.075 99.1998 10.965C98.8918 10.855 98.5398 10.8 98.1438 10.8C97.6378 10.8 97.1868 10.888 96.7908 11.064C96.3948 11.24 96.0648 11.482 95.8008 11.79C95.5368 12.076 95.3278 12.417 95.1738 12.813C95.0418 13.187 94.9428 13.572 94.8768 13.968ZM118.086 24C116.172 24 114.489 23.648 113.037 22.944C111.585 22.218 110.452 21.228 109.638 19.974C108.846 18.698 108.45 17.224 108.45 15.552C108.45 13.704 108.835 12.12 109.605 10.8C110.375 9.48 111.398 8.468 112.674 7.764C113.972 7.038 115.402 6.675 116.964 6.675C118.746 6.675 120.231 7.049 121.419 7.797C122.629 8.545 123.542 9.568 124.158 10.866C124.774 12.142 125.082 13.605 125.082 15.255C125.082 15.541 125.06 15.882 125.016 16.278C124.994 16.652 124.961 16.949 124.917 17.169H113.829C113.961 17.741 114.214 18.225 114.588 18.621C114.962 19.017 115.435 19.314 116.007 19.512C116.579 19.688 117.217 19.776 117.921 19.776H123.102V24H118.086ZM113.697 13.968H120.132C120.088 13.616 120.022 13.275 119.934 12.945C119.846 12.615 119.703 12.329 119.505 12.087C119.329 11.823 119.12 11.603 118.878 11.427C118.636 11.229 118.35 11.075 118.02 10.965C117.712 10.855 117.36 10.8 116.964 10.8C116.458 10.8 116.007 10.888 115.611 11.064C115.215 11.24 114.885 11.482 114.621 11.79C114.357 12.076 114.148 12.417 113.994 12.813C113.862 13.187 113.763 13.572 113.697 13.968ZM134.266 24C132.704 24 131.483 23.56 130.603 22.68C129.723 21.778 129.283 20.568 129.283 19.05V2.946H134.431V18.753C134.431 19.017 134.519 19.248 134.695 19.446C134.893 19.622 135.124 19.71 135.388 19.71H139.084V24H134.266ZM126.511 11.262V7.071H139.084V11.262H126.511ZM142.243 24V19.941H150.394C150.614 19.941 150.812 19.897 150.988 19.809C151.164 19.699 151.307 19.556 151.417 19.38C151.527 19.204 151.582 19.017 151.582 18.819C151.582 18.599 151.527 18.401 151.417 18.225C151.307 18.049 151.164 17.917 150.988 17.829C150.812 17.719 150.614 17.664 150.394 17.664H147.424C146.324 17.664 145.323 17.488 144.421 17.136C143.541 16.762 142.837 16.19 142.309 15.42C141.803 14.628 141.55 13.605 141.55 12.351C141.55 11.383 141.781 10.503 142.243 9.711C142.727 8.919 143.376 8.281 144.19 7.797C145.026 7.313 145.939 7.071 146.929 7.071H155.08V11.163H147.721C147.413 11.163 147.149 11.262 146.929 11.46C146.731 11.658 146.632 11.9 146.632 12.186C146.632 12.494 146.731 12.758 146.929 12.978C147.149 13.176 147.413 13.275 147.721 13.275H150.625C151.857 13.275 152.913 13.462 153.793 13.836C154.695 14.188 155.388 14.76 155.872 15.552C156.378 16.344 156.631 17.367 156.631 18.621C156.631 19.611 156.378 20.513 155.872 21.327C155.388 22.141 154.728 22.79 153.892 23.274C153.078 23.758 152.154 24 151.12 24H142.243Z" fill="url(#paint0_linear_7_21)"/>
<path d="M0.399231 64V40.9H5.94323V49.975H14.9522V40.9H20.4962V64H14.9522V54.595H5.94323V64H0.399231ZM30.3119 70.699V64.099C29.0799 63.791 28.0239 63.296 27.1439 62.614C26.2639 61.91 25.5929 61.063 25.1309 60.073C24.6689 59.061 24.4379 57.972 24.4379 56.806V47.071H29.5529V56.641C29.5529 57.235 29.6959 57.785 29.9819 58.291C30.2679 58.797 30.6529 59.204 31.1369 59.512C31.6429 59.798 32.2039 59.941 32.8199 59.941C33.4579 59.941 34.0189 59.798 34.5029 59.512C35.0089 59.204 35.4049 58.797 35.6909 58.291C35.9769 57.785 36.1199 57.235 36.1199 56.641V47.071H41.2349V56.806C41.2349 57.972 41.0039 59.05 40.5419 60.04C40.1019 61.03 39.4419 61.877 38.5619 62.581C37.7039 63.285 36.6589 63.78 35.4269 64.066V70.699H30.3119ZM53.3459 64.396C51.9379 64.396 50.6619 64.176 49.5179 63.736C48.3959 63.296 47.4499 62.669 46.6799 61.855C45.9099 61.019 45.3159 60.04 44.8979 58.918C44.4799 57.796 44.2709 56.575 44.2709 55.255C44.2709 53.539 44.6119 52.043 45.2939 50.767C45.9979 49.491 46.9549 48.49 48.1649 47.764C49.3969 47.038 50.8049 46.675 52.3889 46.675C53.0709 46.675 53.7089 46.763 54.3029 46.939C54.9189 47.115 55.4689 47.379 55.9529 47.731C56.4589 48.061 56.8769 48.457 57.2069 48.919H57.3059V39.91H62.4209V55.222C62.4209 57.07 62.0469 58.687 61.2989 60.073C60.5509 61.459 59.4949 62.526 58.1309 63.274C56.7889 64.022 55.1939 64.396 53.3459 64.396ZM53.3459 59.974C54.1379 59.974 54.8199 59.787 55.3919 59.413C55.9859 59.017 56.4369 58.489 56.7449 57.829C57.0529 57.147 57.2069 56.388 57.2069 55.552C57.2069 54.716 57.0529 53.968 56.7449 53.308C56.4369 52.648 55.9859 52.131 55.3919 51.757C54.8199 51.361 54.1379 51.163 53.3459 51.163C52.5759 51.163 51.8939 51.361 51.2999 51.757C50.7059 52.131 50.2549 52.648 49.9469 53.308C49.6389 53.968 49.4849 54.716 49.4849 55.552C49.4849 56.388 49.6389 57.147 49.9469 57.829C50.2549 58.489 50.7059 59.017 51.2999 59.413C51.8939 59.787 52.5759 59.974 53.3459 59.974ZM65.9749 64V52.054C65.9749 50.514 66.4149 49.304 67.2949 48.424C68.1749 47.544 69.3959 47.104 70.9579 47.104H75.8749V51.262H72.2119C71.9039 51.262 71.6399 51.372 71.4199 51.592C71.1999 51.79 71.0899 52.054 71.0899 52.384V64H65.9749ZM84.9576 64.396C83.4616 64.396 82.1416 64.011 80.9976 63.241C79.8536 62.471 78.9626 61.437 78.3246 60.139C77.6866 58.819 77.3676 57.334 77.3676 55.684C77.3676 53.968 77.7416 52.439 78.4896 51.097C79.2376 49.733 80.2936 48.655 81.6576 47.863C83.0436 47.071 84.6716 46.675 86.5416 46.675C88.4336 46.675 90.0396 47.071 91.3596 47.863C92.7016 48.633 93.7246 49.7 94.4286 51.064C95.1546 52.406 95.5176 53.913 95.5176 55.585V64H90.5016V61.294H90.3696C90.0616 61.888 89.6656 62.427 89.1816 62.911C88.6976 63.373 88.1036 63.736 87.3996 64C86.7176 64.264 85.9036 64.396 84.9576 64.396ZM86.4756 59.974C87.2456 59.974 87.9166 59.787 88.4886 59.413C89.0826 59.017 89.5336 58.478 89.8416 57.796C90.1496 57.114 90.3036 56.355 90.3036 55.519C90.3036 54.705 90.1496 53.968 89.8416 53.308C89.5336 52.648 89.0826 52.131 88.4886 51.757C87.9166 51.361 87.2456 51.163 86.4756 51.163C85.6836 51.163 84.9906 51.361 84.3966 51.757C83.8026 52.131 83.3516 52.648 83.0436 53.308C82.7356 53.968 82.5816 54.705 82.5816 55.519C82.5816 56.355 82.7356 57.114 83.0436 57.796C83.3516 58.478 83.8026 59.017 84.3966 59.413C84.9906 59.787 85.6836 59.974 86.4756 59.974ZM105.504 64C103.942 64 102.721 63.56 101.841 62.68C100.961 61.778 100.521 60.568 100.521 59.05V42.946H105.669V58.753C105.669 59.017 105.757 59.248 105.933 59.446C106.131 59.622 106.362 59.71 106.626 59.71H110.322V64H105.504ZM97.7492 51.262V47.071H110.322V51.262H97.7492ZM113.448 64V47.071H118.596V64H113.448ZM116.022 45.157C115.208 45.157 114.504 44.86 113.91 44.266C113.316 43.672 113.019 42.968 113.019 42.154C113.019 41.34 113.316 40.636 113.91 40.042C114.504 39.426 115.208 39.118 116.022 39.118C116.836 39.118 117.54 39.426 118.134 40.042C118.728 40.636 119.025 41.34 119.025 42.154C119.025 42.968 118.728 43.672 118.134 44.266C117.54 44.86 116.836 45.157 116.022 45.157ZM130.724 64.396C128.986 64.396 127.424 64.011 126.038 63.241C124.652 62.471 123.552 61.415 122.738 60.073C121.946 58.731 121.55 57.224 121.55 55.552C121.55 53.858 121.946 52.351 122.738 51.031C123.552 49.689 124.652 48.633 126.038 47.863C127.424 47.071 128.986 46.675 130.724 46.675C132.462 46.675 134.013 47.071 135.377 47.863C136.763 48.633 137.852 49.689 138.644 51.031C139.458 52.351 139.865 53.858 139.865 55.552C139.865 57.224 139.458 58.731 138.644 60.073C137.852 61.415 136.763 62.471 135.377 63.241C133.991 64.011 132.44 64.396 130.724 64.396ZM130.724 59.941C131.538 59.941 132.242 59.743 132.836 59.347C133.43 58.951 133.892 58.423 134.222 57.763C134.552 57.103 134.717 56.355 134.717 55.519C134.717 54.705 134.552 53.968 134.222 53.308C133.892 52.648 133.43 52.12 132.836 51.724C132.242 51.328 131.538 51.13 130.724 51.13C129.91 51.13 129.195 51.328 128.579 51.724C127.985 52.12 127.523 52.648 127.193 53.308C126.863 53.968 126.698 54.705 126.698 55.519C126.698 56.355 126.863 57.103 127.193 57.763C127.523 58.423 127.985 58.951 128.579 59.347C129.195 59.743 129.91 59.941 130.724 59.941ZM142.903 64V54.265C142.903 52.857 143.244 51.581 143.926 50.437C144.608 49.293 145.576 48.38 146.83 47.698C148.106 47.016 149.613 46.675 151.351 46.675C153.111 46.675 154.607 47.016 155.839 47.698C157.093 48.38 158.05 49.293 158.71 50.437C159.37 51.581 159.7 52.857 159.7 54.265V64H154.585V54.397C154.585 53.803 154.442 53.264 154.156 52.78C153.87 52.274 153.474 51.878 152.968 51.592C152.484 51.284 151.934 51.13 151.318 51.13C150.68 51.13 150.108 51.284 149.602 51.592C149.118 51.878 148.733 52.274 148.447 52.78C148.161 53.264 148.018 53.803 148.018 54.397V64H142.903Z" fill="#89EFF5"/>
</g>
<defs>
<filter id="filter0_d_7_21" x="0.399231" y="0.504028" width="169.301" height="80.1949" filterUnits="userSpaceOnUse" color-interpolation-filters="sRGB">
<feFlood flood-opacity="0" result="BackgroundImageFix"/>
<feColorMatrix in="SourceAlpha" type="matrix" values="0 0 0 0 0 0 0 0 0 0 0 0 0 0 0 0 0 0 127 0" result="hardAlpha"/>
<feOffset dx="5" dy="5"/>
<feGaussianBlur stdDeviation="2.5"/>
<feComposite in2="hardAlpha" operator="out"/>
<feColorMatrix type="matrix" values="0 0 0 0 0 0 0 0 0 0 0 0 0 0 0 0 0 0 0.25 0"/>
<feBlend mode="normal" in2="BackgroundImageFix" result="effect1_dropShadow_7_21"/>
<feBlend mode="normal" in="SourceGraphic" in2="effect1_dropShadow_7_21" result="shape"/>
</filter>
<linearGradient id="paint0_linear_7_21" x1="54.5" y1="17" x2="156.5" y2="17.5" gradientUnits="userSpaceOnUse">
<stop stop-color="#CBA7E0"/>
<stop offset="0.496821" stop-color="#89B4DD"/>
<stop offset="1" stop-color="#A6F7FF"/>
</linearGradient>
</defs>
</svg>
