<svg width="24" height="24" viewBox="0 0 24 24" fill="none" xmlns="http://www.w3.org/2000/svg">
<mask id="mask0_1418_4587" style="mask-type:alpha" maskUnits="userSpaceOnUse" x="0" y="0" width="24" height="24">
<rect width="24" height="24" fill="#D9D9D9"/>
</mask>
<g mask="url(#mask0_1418_4587)">
<path d="M16.8077 19C16.5789 19 16.3871 18.9226 16.2322 18.7678C16.0774 18.6129 16 18.4211 16 18.1923V15C16 14.7712 16.0774 14.5793 16.2322 14.4245C16.3871 14.2697 16.5789 14.1923 16.8077 14.1923H18.1923C18.4211 14.1923 18.6129 14.2697 18.7678 14.4245C18.9226 14.5793 19 14.7712 19 15V18.1923C19 18.4211 18.9226 18.6129 18.7678 18.7678C18.6129 18.9226 18.4211 19 18.1923 19H16.8077ZM11.3078 19C11.0789 19 10.8871 18.9226 10.7323 18.7678C10.5774 18.6129 10.5 18.4211 10.5 18.1923V5.80775C10.5 5.57892 10.5774 5.38708 10.7323 5.23225C10.8871 5.07742 11.0789 5 11.3078 5H12.6923C12.9211 5 13.1129 5.07742 13.2678 5.23225C13.4226 5.38708 13.5 5.57892 13.5 5.80775V18.1923C13.5 18.4211 13.4226 18.6129 13.2678 18.7678C13.1129 18.9226 12.9211 19 12.6923 19H11.3078ZM5.80775 19C5.57892 19 5.38708 18.9226 5.23225 18.7678C5.07742 18.6129 5 18.4211 5 18.1923V10.6247C5 10.3864 5.07742 10.1907 5.23225 10.0375C5.38708 9.88433 5.57892 9.80775 5.80775 9.80775H7.19225C7.42108 9.80775 7.61292 9.88517 7.76775 10.04C7.92258 10.1947 8 10.3865 8 10.6155V18.183C8 18.4213 7.92258 18.6171 7.76775 18.7703C7.61292 18.9234 7.42108 19 7.19225 19H5.80775Z" fill="white"/>
</g>
</svg>
