<svg width="32" height="32" viewBox="0 0 32 32" fill="none" xmlns="http://www.w3.org/2000/svg">
<path d="M15.5115 25.6797H10.9561V24.0391H15.0833C14.9941 23.5283 14.9384 22.9825 14.923 22.3984H10.9561V20.7578H15.0944C15.2462 20.1836 15.4934 19.6224 15.825 19.1042H10.9561V17.4635H15.8894V19.0057C16.0398 18.7796 16.2067 18.5622 16.3881 18.3565C16.8655 17.8162 17.4162 17.3847 18.0261 17.0745C18.714 16.7246 19.4403 16.5469 20.1852 16.5469C20.7116 16.5469 21.2106 16.6129 21.6748 16.741V7.01593H18.3936V10.8774H5.26855V7.01593H1.9873V30H18.4294C17.5728 29.1444 16.2658 27.8059 15.5115 25.6797ZM10.9561 14.1748H15.8894V15.8154H10.9561V14.1748ZM9.31543 25.6797H7.6748V24.0391H9.31543V25.6797ZM9.31543 22.3984H7.6748V20.7578H9.31543V22.3984ZM9.31543 19.1353H7.6748V17.4947H9.31543V19.1353ZM9.31543 15.8154H7.6748V14.1748H9.31543V15.8154Z" fill="#C7A2DC"/>
<path d="M16.7529 7.01588V5.39828H14.4231V4.62883C14.4231 3.9268 14.1497 3.26673 13.653 2.77027C13.1564 2.27366 12.4963 2 11.7943 2C10.3449 2 9.16569 3.17923 9.16569 4.62883V5.39828H6.90918V9.23669H16.7529V7.01588ZM12.7825 5.39828H10.8061V4.62883C10.8061 4.08381 11.2493 3.64057 11.7943 3.64057C12.0579 3.64057 12.3062 3.74355 12.4929 3.93025C12.585 4.02174 12.658 4.13059 12.7077 4.2505C12.7574 4.3704 12.7828 4.49897 12.7825 4.62877V5.39828ZM28.5845 19.2366C27.9064 18.5599 27.0194 18.1875 26.0861 18.1875H26.0791C25.3151 18.189 24.6021 18.412 24.0084 18.7918V18.5336C24.0084 17.5889 24.7771 16.8203 25.7217 16.8203V15.1797C23.8724 15.1797 22.3678 16.6842 22.3678 18.5336V18.7916C22.1492 18.6522 21.917 18.5352 21.6748 18.4426V18.4385C21.2484 18.2542 20.7479 18.1875 20.1852 18.1875C18.1748 18.1875 16.5587 20.2383 16.5587 22.0735C16.5587 26.0805 18.7529 27.987 19.8915 29.1419C20.3595 29.6172 20.9108 30 21.5731 30C21.607 30 21.641 29.9973 21.6747 29.9929V29.9876C21.6844 29.9878 21.694 29.988 21.7036 29.9885C21.7181 29.9861 21.7329 29.9844 21.7474 29.9814V29.9891C21.9341 29.988 22.1219 29.9519 22.306 29.8814H22.3062C22.8187 29.6851 23.3771 29.6766 23.8787 29.8568C24.1222 29.9445 24.379 29.9893 24.6377 29.9893C25.3751 29.9893 26.0745 29.6464 26.6603 28.9975C26.7835 28.861 26.919 28.718 27.0623 28.567C28.2225 27.3436 29.8115 25.6684 29.8115 22.3673C29.8115 21.1381 29.3756 20.0261 28.5844 19.2366H28.5845Z" fill="#C7A2DC"/>
</svg>
