<svg width="18" height="18" viewBox="0 0 18 18" fill="none" xmlns="http://www.w3.org/2000/svg">
<path fill-rule="evenodd" clip-rule="evenodd" d="M5.10866 0.667007H12.8912C15.7253 0.667007 17.3253 2.27451 17.3337 5.10867V12.892C17.3337 15.7253 15.7253 17.3337 12.8912 17.3337H5.10866C2.27449 17.3337 0.666992 15.7253 0.666992 12.892V5.10867C0.666992 2.27451 2.27449 0.667007 5.10866 0.667007ZM9.04116 13.8837C9.40033 13.8837 9.69949 13.617 9.73283 13.2587V4.76701C9.76616 4.50867 9.64199 4.24951 9.41699 4.10867C9.18283 3.96701 8.89949 3.96701 8.67533 4.10867C8.44949 4.24951 8.32533 4.50867 8.34949 4.76701V13.2587C8.39199 13.617 8.69116 13.8837 9.04116 13.8837ZM12.8753 13.8837C13.2253 13.8837 13.5245 13.617 13.567 13.2587V10.5253C13.5912 10.2578 13.467 10.0087 13.2412 9.86701C13.017 9.72534 12.7337 9.72534 12.5003 9.86701C12.2745 10.0087 12.1503 10.2578 12.1837 10.5253V13.2587C12.217 13.617 12.5162 13.8837 12.8753 13.8837ZM5.84949 13.2587C5.81616 13.617 5.51699 13.8837 5.15783 13.8837C4.79949 13.8837 4.49949 13.617 4.46699 13.2587V7.50034C4.44199 7.24117 4.56616 6.98367 4.79199 6.84201C5.01616 6.70034 5.30033 6.70034 5.52533 6.84201C5.74949 6.98367 5.87533 7.24117 5.84949 7.50034V13.2587Z" fill="white"/>
</svg>
