<svg width="382" height="96" viewBox="0 0 382 96" fill="none" xmlns="http://www.w3.org/2000/svg">
<g filter="url(#filter0_d_140_3759)">
<path d="M44.4051 37V14.6H57.3971C58.5065 14.6 59.5091 14.8453 60.4051 15.336C61.3225 15.8267 62.0478 16.5093 62.5811 17.384C63.1358 18.2587 63.4131 19.2933 63.4131 20.488C63.4131 21.192 63.2745 21.864 62.9971 22.504C62.7411 23.144 62.3678 23.7093 61.8771 24.2C61.4078 24.6907 60.8638 25.0853 60.2451 25.384C60.9705 25.6827 61.6105 26.1093 62.1651 26.664C62.7411 27.2187 63.1891 27.8587 63.5091 28.584C63.8505 29.3093 64.0211 30.088 64.0211 30.92C64.0211 32.136 63.7331 33.2027 63.1571 34.12C62.6025 35.0373 61.8558 35.752 60.9171 36.264C59.9785 36.7547 58.9331 37 57.7811 37H44.4051ZM49.7811 32.552H56.3731C56.8211 32.552 57.2158 32.4453 57.5571 32.232C57.9198 32.0187 58.2078 31.7307 58.4211 31.368C58.6345 31.0053 58.7411 30.6107 58.7411 30.184C58.7411 29.736 58.6345 29.3413 58.4211 29C58.2078 28.6373 57.9198 28.3493 57.5571 28.136C57.2158 27.9227 56.8211 27.816 56.3731 27.816H49.7811V32.552ZM49.7811 23.528H55.8291C56.2558 23.528 56.6291 23.432 56.9491 23.24C57.2905 23.0267 57.5571 22.76 57.7491 22.44C57.9411 22.0987 58.0371 21.7253 58.0371 21.32C58.0371 20.8933 57.9411 20.52 57.7491 20.2C57.5571 19.8587 57.2905 19.592 56.9491 19.4C56.6291 19.1867 56.2558 19.08 55.8291 19.08H49.7811V23.528ZM75.6039 37C73.7479 37 72.1159 36.6587 70.7079 35.976C69.2999 35.272 68.2012 34.312 67.4119 33.096C66.6439 31.8587 66.2599 30.4293 66.2599 28.808C66.2599 27.016 66.6332 25.48 67.3799 24.2C68.1265 22.92 69.1185 21.9387 70.3559 21.256C71.6145 20.552 73.0012 20.2 74.5159 20.2C76.2439 20.2 77.6839 20.5627 78.8359 21.288C80.0092 22.0133 80.8945 23.0053 81.4919 24.264C82.0892 25.5013 82.3879 26.92 82.3879 28.52C82.3879 28.7973 82.3665 29.128 82.3239 29.512C82.3025 29.8747 82.2705 30.1627 82.2279 30.376H71.4759C71.6039 30.9307 71.8492 31.4 72.2119 31.784C72.5745 32.168 73.0332 32.456 73.5879 32.648C74.1425 32.8187 74.7612 32.904 75.4439 32.904H80.4679V37H75.6039ZM71.3479 27.272H77.5879C77.5452 26.9307 77.4812 26.6 77.3959 26.28C77.3105 25.96 77.1719 25.6827 76.9799 25.448C76.8092 25.192 76.6065 24.9787 76.3719 24.808C76.1372 24.616 75.8599 24.4667 75.5399 24.36C75.2412 24.2533 74.8999 24.2 74.5159 24.2C74.0252 24.2 73.5879 24.2853 73.2039 24.456C72.8199 24.6267 72.4999 24.8613 72.2439 25.16C71.9879 25.4373 71.7852 25.768 71.6359 26.152C71.5079 26.5147 71.4119 26.888 71.3479 27.272ZM87.7739 43.496V39.24H95.9659C96.2859 39.24 96.5525 39.1333 96.7659 38.92C96.9792 38.728 97.0859 38.4827 97.0859 38.184V34.568H96.9899C96.5632 35.0587 96.1045 35.4747 95.6139 35.816C95.1445 36.1573 94.6112 36.4133 94.0139 36.584C93.4379 36.7547 92.7872 36.84 92.0619 36.84C90.6112 36.84 89.3099 36.4987 88.1579 35.816C87.0272 35.112 86.1312 34.1413 85.4699 32.904C84.8299 31.6667 84.5099 30.2587 84.5099 28.68C84.5099 27.1227 84.8405 25.704 85.5019 24.424C86.1845 23.144 87.1765 22.12 88.4779 21.352C89.7792 20.584 91.3685 20.2 93.2459 20.2C95.0379 20.2 96.5845 20.5733 97.8859 21.32C99.2085 22.0453 100.233 23.08 100.958 24.424C101.683 25.7467 102.046 27.304 102.046 29.096V38.696C102.046 40.168 101.609 41.3307 100.734 42.184C99.8805 43.0587 98.6965 43.496 97.1819 43.496H87.7739ZM93.2779 32.68C94.0459 32.68 94.7072 32.5093 95.2619 32.168C95.8165 31.8053 96.2432 31.3253 96.5419 30.728C96.8405 30.1307 96.9899 29.4693 96.9899 28.744C96.9899 27.976 96.8405 27.272 96.5419 26.632C96.2432 25.992 95.8165 25.4907 95.2619 25.128C94.7072 24.744 94.0459 24.552 93.2779 24.552C92.5312 24.552 91.8699 24.7333 91.2939 25.096C90.7392 25.4587 90.3125 25.9493 90.0139 26.568C89.7152 27.1867 89.5659 27.88 89.5659 28.648C89.5659 29.3947 89.7152 30.0773 90.0139 30.696C90.3125 31.2933 90.7392 31.7733 91.2939 32.136C91.8699 32.4987 92.5312 32.68 93.2779 32.68ZM105.622 37V20.584H110.614V37H105.622ZM108.118 18.728C107.328 18.728 106.646 18.44 106.07 17.864C105.494 17.288 105.206 16.6053 105.206 15.816C105.206 15.0267 105.494 14.344 106.07 13.768C106.646 13.1707 107.328 12.872 108.118 12.872C108.907 12.872 109.59 13.1707 110.166 13.768C110.742 14.344 111.03 15.0267 111.03 15.816C111.03 16.6053 110.742 17.288 110.166 17.864C109.59 18.44 108.907 18.728 108.118 18.728ZM114.247 37V27.56C114.247 26.1947 114.577 24.9573 115.239 23.848C115.9 22.7387 116.839 21.8533 118.055 21.192C119.292 20.5307 120.753 20.2 122.439 20.2C124.145 20.2 125.596 20.5307 126.791 21.192C128.007 21.8533 128.935 22.7387 129.575 23.848C130.215 24.9573 130.535 26.1947 130.535 27.56V37H125.575V27.688C125.575 27.112 125.436 26.5893 125.159 26.12C124.881 25.6293 124.497 25.2453 124.007 24.968C123.537 24.6693 123.004 24.52 122.407 24.52C121.788 24.52 121.233 24.6693 120.743 24.968C120.273 25.2453 119.9 25.6293 119.623 26.12C119.345 26.5893 119.207 27.112 119.207 27.688V37H114.247ZM148.411 43.496V37.096C147.217 36.7973 146.193 36.3173 145.339 35.656C144.486 34.9733 143.835 34.152 143.387 33.192C142.939 32.2107 142.715 31.1547 142.715 30.024V20.584H147.675V29.864C147.675 30.44 147.814 30.9733 148.091 31.464C148.369 31.9547 148.742 32.3493 149.211 32.648C149.702 32.9253 150.246 33.064 150.843 33.064C151.462 33.064 152.006 32.9253 152.475 32.648C152.966 32.3493 153.35 31.9547 153.627 31.464C153.905 30.9733 154.043 30.44 154.043 29.864V20.584H159.003V30.024C159.003 31.1547 158.779 32.2 158.331 33.16C157.905 34.12 157.265 34.9413 156.411 35.624C155.579 36.3067 154.566 36.7867 153.371 37.064V43.496H148.411ZM170.843 37.384C169.158 37.384 167.643 37.0107 166.299 36.264C164.955 35.5173 163.889 34.4933 163.099 33.192C162.331 31.8907 161.947 30.4293 161.947 28.808C161.947 27.1653 162.331 25.704 163.099 24.424C163.889 23.1227 164.955 22.0987 166.299 21.352C167.643 20.584 169.158 20.2 170.843 20.2C172.529 20.2 174.033 20.584 175.355 21.352C176.699 22.0987 177.755 23.1227 178.523 24.424C179.313 25.704 179.707 27.1653 179.707 28.808C179.707 30.4293 179.313 31.8907 178.523 33.192C177.755 34.4933 176.699 35.5173 175.355 36.264C174.011 37.0107 172.507 37.384 170.843 37.384ZM170.843 33.064C171.633 33.064 172.315 32.872 172.891 32.488C173.467 32.104 173.915 31.592 174.235 30.952C174.555 30.312 174.715 29.5867 174.715 28.776C174.715 27.9867 174.555 27.272 174.235 26.632C173.915 25.992 173.467 25.48 172.891 25.096C172.315 24.712 171.633 24.52 170.843 24.52C170.054 24.52 169.361 24.712 168.763 25.096C168.187 25.48 167.739 25.992 167.419 26.632C167.099 27.272 166.939 27.9867 166.939 28.776C166.939 29.5867 167.099 30.312 167.419 30.952C167.739 31.592 168.187 32.104 168.763 32.488C169.361 32.872 170.054 33.064 170.843 33.064ZM190.845 37.384C189.16 37.384 187.698 37.064 186.461 36.424C185.245 35.7627 184.306 34.8773 183.645 33.768C182.984 32.6373 182.653 31.3893 182.653 30.024V20.584H187.613V29.896C187.613 30.472 187.752 31.0053 188.029 31.496C188.306 31.9653 188.68 32.3493 189.149 32.648C189.64 32.9253 190.194 33.064 190.813 33.064C191.41 33.064 191.944 32.9253 192.413 32.648C192.904 32.3493 193.288 31.9653 193.565 31.496C193.842 31.0053 193.981 30.472 193.981 29.896V20.584H198.941V30.024C198.941 31.3893 198.621 32.6373 197.981 33.768C197.341 34.8773 196.413 35.7627 195.197 36.424C194.002 37.064 192.552 37.384 190.845 37.384ZM202.525 37V25.416C202.525 23.9227 202.952 22.7493 203.805 21.896C204.658 21.0427 205.842 20.616 207.357 20.616H212.125V24.648H208.573C208.274 24.648 208.018 24.7547 207.805 24.968C207.592 25.16 207.485 25.416 207.485 25.736V37H202.525ZM218.297 43.496V39.24H221.785C222.105 39.24 222.361 39.1333 222.553 38.92C222.766 38.728 222.873 38.4827 222.873 38.184V20.584H227.833V38.696C227.833 40.168 227.406 41.3307 226.553 42.184C225.7 43.0587 224.516 43.496 223.001 43.496H218.297ZM225.305 18.696C224.516 18.696 223.833 18.408 223.257 17.832C222.681 17.256 222.393 16.5733 222.393 15.784C222.393 14.9947 222.681 14.312 223.257 13.736C223.833 13.1387 224.516 12.84 225.305 12.84C226.094 12.84 226.777 13.1387 227.353 13.736C227.929 14.312 228.217 14.9947 228.217 15.784C228.217 16.5733 227.929 17.256 227.353 17.832C226.777 18.408 226.094 18.696 225.305 18.696ZM239.656 37.384C237.971 37.384 236.456 37.0107 235.112 36.264C233.768 35.5173 232.701 34.4933 231.912 33.192C231.144 31.8907 230.76 30.4293 230.76 28.808C230.76 27.1653 231.144 25.704 231.912 24.424C232.701 23.1227 233.768 22.0987 235.112 21.352C236.456 20.584 237.971 20.2 239.656 20.2C241.341 20.2 242.845 20.584 244.168 21.352C245.512 22.0987 246.568 23.1227 247.336 24.424C248.125 25.704 248.52 27.1653 248.52 28.808C248.52 30.4293 248.125 31.8907 247.336 33.192C246.568 34.4933 245.512 35.5173 244.168 36.264C242.824 37.0107 241.32 37.384 239.656 37.384ZM239.656 33.064C240.445 33.064 241.128 32.872 241.704 32.488C242.28 32.104 242.728 31.592 243.048 30.952C243.368 30.312 243.528 29.5867 243.528 28.776C243.528 27.9867 243.368 27.272 243.048 26.632C242.728 25.992 242.28 25.48 241.704 25.096C241.128 24.712 240.445 24.52 239.656 24.52C238.867 24.52 238.173 24.712 237.576 25.096C237 25.48 236.552 25.992 236.232 26.632C235.912 27.272 235.752 27.9867 235.752 28.776C235.752 29.5867 235.912 30.312 236.232 30.952C236.552 31.592 237 32.104 237.576 32.488C238.173 32.872 238.867 33.064 239.656 33.064ZM259.657 37.384C257.972 37.384 256.511 37.064 255.273 36.424C254.057 35.7627 253.119 34.8773 252.457 33.768C251.796 32.6373 251.465 31.3893 251.465 30.024V20.584H256.425V29.896C256.425 30.472 256.564 31.0053 256.841 31.496C257.119 31.9653 257.492 32.3493 257.961 32.648C258.452 32.9253 259.007 33.064 259.625 33.064C260.223 33.064 260.756 32.9253 261.225 32.648C261.716 32.3493 262.1 31.9653 262.377 31.496C262.655 31.0053 262.793 30.472 262.793 29.896V20.584H267.753V30.024C267.753 31.3893 267.433 32.6373 266.793 33.768C266.153 34.8773 265.225 35.7627 264.009 36.424C262.815 37.064 261.364 37.384 259.657 37.384ZM271.337 37V25.416C271.337 23.9227 271.764 22.7493 272.617 21.896C273.471 21.0427 274.655 20.616 276.169 20.616H280.937V24.648H277.385C277.087 24.648 276.831 24.7547 276.617 24.968C276.404 25.16 276.297 25.416 276.297 25.736V37H271.337ZM283.153 37V27.56C283.153 26.1947 283.484 24.9573 284.145 23.848C284.806 22.7387 285.745 21.8533 286.961 21.192C288.198 20.5307 289.66 20.2 291.345 20.2C293.052 20.2 294.502 20.5307 295.697 21.192C296.913 21.8533 297.841 22.7387 298.481 23.848C299.121 24.9573 299.441 26.1947 299.441 27.56V37H294.481V27.688C294.481 27.112 294.342 26.5893 294.065 26.12C293.788 25.6293 293.404 25.2453 292.913 24.968C292.444 24.6693 291.91 24.52 291.313 24.52C290.694 24.52 290.14 24.6693 289.649 24.968C289.18 25.2453 288.806 25.6293 288.529 26.12C288.252 26.5893 288.113 27.112 288.113 27.688V37H283.153ZM311.729 37C309.873 37 308.241 36.6587 306.833 35.976C305.425 35.272 304.326 34.312 303.537 33.096C302.769 31.8587 302.385 30.4293 302.385 28.808C302.385 27.016 302.758 25.48 303.505 24.2C304.252 22.92 305.244 21.9387 306.481 21.256C307.74 20.552 309.126 20.2 310.641 20.2C312.369 20.2 313.809 20.5627 314.961 21.288C316.134 22.0133 317.02 23.0053 317.617 24.264C318.214 25.5013 318.513 26.92 318.513 28.52C318.513 28.7973 318.492 29.128 318.449 29.512C318.428 29.8747 318.396 30.1627 318.353 30.376H307.601C307.729 30.9307 307.974 31.4 308.337 31.784C308.7 32.168 309.158 32.456 309.713 32.648C310.268 32.8187 310.886 32.904 311.569 32.904H316.593V37H311.729ZM307.473 27.272H313.713C313.67 26.9307 313.606 26.6 313.521 26.28C313.436 25.96 313.297 25.6827 313.105 25.448C312.934 25.192 312.732 24.9787 312.497 24.808C312.262 24.616 311.985 24.4667 311.665 24.36C311.366 24.2533 311.025 24.2 310.641 24.2C310.15 24.2 309.713 24.2853 309.329 24.456C308.945 24.6267 308.625 24.8613 308.369 25.16C308.113 25.4373 307.91 25.768 307.761 26.152C307.633 26.5147 307.537 26.888 307.473 27.272ZM327.099 43.496V37.096C325.904 36.7973 324.88 36.3173 324.027 35.656C323.174 34.9733 322.523 34.152 322.075 33.192C321.627 32.2107 321.403 31.1547 321.403 30.024V20.584H326.363V29.864C326.363 30.44 326.502 30.9733 326.779 31.464C327.056 31.9547 327.43 32.3493 327.899 32.648C328.39 32.9253 328.934 33.064 329.531 33.064C330.15 33.064 330.694 32.9253 331.163 32.648C331.654 32.3493 332.038 31.9547 332.315 31.464C332.592 30.9733 332.731 30.44 332.731 29.864V20.584H337.691V30.024C337.691 31.1547 337.467 32.2 337.019 33.16C336.592 34.12 335.952 34.9413 335.099 35.624C334.267 36.3067 333.254 36.7867 332.059 37.064V43.496H327.099Z" fill="white"/>
<path d="M64.1374 84C63.4534 84 62.8594 83.856 62.3554 83.568C61.8634 83.268 61.4794 82.866 61.2034 82.362C60.9394 81.846 60.8074 81.27 60.8074 80.634V71.4H62.5354V80.85C62.5354 81.318 62.6794 81.708 62.9674 82.02C63.2674 82.32 63.6574 82.47 64.1374 82.47H67.5214V84H64.1374ZM74.2317 84C73.2237 84 72.3297 83.814 71.5497 83.442C70.7697 83.058 70.1577 82.524 69.7137 81.84C69.2817 81.144 69.0657 80.334 69.0657 79.41C69.0657 78.498 69.2517 77.682 69.6237 76.962C69.9957 76.23 70.5117 75.654 71.1717 75.234C71.8317 74.814 72.5997 74.604 73.4757 74.604C74.4237 74.604 75.2097 74.808 75.8337 75.216C76.4697 75.624 76.9437 76.176 77.2557 76.872C77.5677 77.556 77.7237 78.324 77.7237 79.176C77.7237 79.308 77.7177 79.446 77.7057 79.59C77.7057 79.734 77.6937 79.86 77.6697 79.968H70.8297C70.8897 80.532 71.0757 81.012 71.3877 81.408C71.6997 81.792 72.0957 82.086 72.5757 82.29C73.0677 82.482 73.6077 82.578 74.1957 82.578H76.5897V84H74.2317ZM70.8117 78.798H76.0497C76.0497 78.57 76.0257 78.33 75.9777 78.078C75.9297 77.814 75.8457 77.562 75.7257 77.322C75.6057 77.07 75.4437 76.848 75.2397 76.656C75.0477 76.452 74.8017 76.29 74.5017 76.17C74.2137 76.05 73.8717 75.99 73.4757 75.99C73.0557 75.99 72.6837 76.074 72.3597 76.242C72.0477 76.398 71.7777 76.614 71.5497 76.89C71.3217 77.154 71.1477 77.454 71.0277 77.79C70.9077 78.126 70.8357 78.462 70.8117 78.798ZM83.1673 84C82.3513 84 81.7093 83.766 81.2413 83.298C80.7853 82.83 80.5573 82.194 80.5573 81.39V72.516H82.2133V81.282C82.2133 81.678 82.3213 81.996 82.5373 82.236C82.7653 82.464 83.0773 82.578 83.4733 82.578H85.3273V84H83.1673ZM78.9733 76.242V74.82H85.3633V76.242H78.9733ZM88.2321 76.674V71.4H89.8881V76.674H88.2321ZM92.5437 84V82.578H96.9357C97.2237 82.578 97.4697 82.518 97.6737 82.398C97.8897 82.266 98.0517 82.098 98.1597 81.894C98.2677 81.69 98.3217 81.474 98.3217 81.246C98.3217 81.03 98.2737 80.832 98.1777 80.652C98.0817 80.46 97.9317 80.31 97.7277 80.202C97.5357 80.082 97.3017 80.022 97.0257 80.022H95.1717C94.5837 80.022 94.0677 79.926 93.6237 79.734C93.1917 79.53 92.8497 79.236 92.5977 78.852C92.3577 78.468 92.2377 78 92.2377 77.448C92.2377 76.98 92.3517 76.548 92.5797 76.152C92.8077 75.756 93.1257 75.438 93.5337 75.198C93.9417 74.946 94.4097 74.82 94.9377 74.82H99.1677V76.242H95.0997C94.7277 76.242 94.4337 76.356 94.2177 76.584C94.0017 76.812 93.8937 77.082 93.8937 77.394C93.8937 77.694 94.0017 77.958 94.2177 78.186C94.4457 78.402 94.7637 78.51 95.1717 78.51H96.9357C97.5957 78.51 98.1477 78.618 98.5917 78.834C99.0477 79.038 99.3897 79.338 99.6177 79.734C99.8577 80.13 99.9777 80.616 99.9777 81.192C99.9777 81.684 99.8577 82.146 99.6177 82.578C99.3777 82.998 99.0417 83.34 98.6097 83.604C98.1897 83.868 97.6977 84 97.1337 84H92.5437ZM111.556 84.216C110.86 84.216 110.224 84.108 109.648 83.892C109.072 83.664 108.574 83.334 108.154 82.902C107.734 82.47 107.404 81.954 107.164 81.354C106.936 80.742 106.822 80.058 106.822 79.302C106.822 78.342 107.014 77.514 107.398 76.818C107.794 76.11 108.328 75.564 109 75.18C109.684 74.796 110.446 74.604 111.286 74.604C111.754 74.604 112.198 74.682 112.618 74.838C113.05 74.994 113.434 75.21 113.77 75.486C114.106 75.762 114.37 76.086 114.562 76.458H114.598V70.86H116.254V79.356C116.254 80.376 116.044 81.252 115.624 81.984C115.216 82.704 114.658 83.256 113.95 83.64C113.254 84.024 112.456 84.216 111.556 84.216ZM111.556 82.794C112.12 82.794 112.63 82.656 113.086 82.38C113.542 82.104 113.902 81.714 114.166 81.21C114.442 80.706 114.58 80.112 114.58 79.428C114.58 78.732 114.442 78.132 114.166 77.628C113.902 77.112 113.542 76.716 113.086 76.44C112.63 76.164 112.114 76.026 111.538 76.026C110.974 76.026 110.458 76.17 109.99 76.458C109.534 76.746 109.168 77.142 108.892 77.646C108.628 78.15 108.496 78.738 108.496 79.41C108.496 80.106 108.634 80.706 108.91 81.21C109.186 81.714 109.552 82.104 110.008 82.38C110.476 82.656 110.992 82.794 111.556 82.794ZM119.022 84V74.82H120.696V84H119.022ZM119.868 73.362C119.568 73.362 119.304 73.254 119.076 73.038C118.86 72.81 118.752 72.546 118.752 72.246C118.752 71.946 118.86 71.688 119.076 71.472C119.304 71.244 119.568 71.13 119.868 71.13C120.168 71.13 120.426 71.244 120.642 71.472C120.87 71.688 120.984 71.946 120.984 72.246C120.984 72.546 120.87 72.81 120.642 73.038C120.426 73.254 120.168 73.362 119.868 73.362ZM127.381 84.216C126.973 84.216 126.601 84.102 126.265 83.874C125.941 83.634 125.701 83.298 125.545 82.866L122.557 74.82H124.375L127.039 82.254C127.087 82.374 127.141 82.458 127.201 82.506C127.261 82.554 127.327 82.578 127.399 82.578C127.483 82.578 127.549 82.554 127.597 82.506C127.657 82.458 127.711 82.374 127.759 82.254L130.441 74.82H132.223L129.235 82.866C129.067 83.298 128.821 83.634 128.497 83.874C128.173 84.102 127.801 84.216 127.381 84.216ZM138.41 84C137.402 84 136.508 83.814 135.728 83.442C134.948 83.058 134.336 82.524 133.892 81.84C133.46 81.144 133.244 80.334 133.244 79.41C133.244 78.498 133.43 77.682 133.802 76.962C134.174 76.23 134.69 75.654 135.35 75.234C136.01 74.814 136.778 74.604 137.654 74.604C138.602 74.604 139.388 74.808 140.012 75.216C140.648 75.624 141.122 76.176 141.434 76.872C141.746 77.556 141.902 78.324 141.902 79.176C141.902 79.308 141.896 79.446 141.884 79.59C141.884 79.734 141.872 79.86 141.848 79.968H135.008C135.068 80.532 135.254 81.012 135.566 81.408C135.878 81.792 136.274 82.086 136.754 82.29C137.246 82.482 137.786 82.578 138.374 82.578H140.768V84H138.41ZM134.99 78.798H140.228C140.228 78.57 140.204 78.33 140.156 78.078C140.108 77.814 140.024 77.562 139.904 77.322C139.784 77.07 139.622 76.848 139.418 76.656C139.226 76.452 138.98 76.29 138.68 76.17C138.392 76.05 138.05 75.99 137.654 75.99C137.234 75.99 136.862 76.074 136.538 76.242C136.226 76.398 135.956 76.614 135.728 76.89C135.5 77.154 135.326 77.454 135.206 77.79C135.086 78.126 135.014 78.462 134.99 78.798ZM149.177 84V74.82H150.851V84H149.177ZM150.023 73.362C149.723 73.362 149.459 73.254 149.231 73.038C149.015 72.81 148.907 72.546 148.907 72.246C148.907 71.946 149.015 71.688 149.231 71.472C149.459 71.244 149.723 71.13 150.023 71.13C150.323 71.13 150.581 71.244 150.797 71.472C151.025 71.688 151.139 71.946 151.139 72.246C151.139 72.546 151.025 72.81 150.797 73.038C150.581 73.254 150.323 73.362 150.023 73.362ZM153.666 84V78.69C153.666 77.874 153.846 77.16 154.206 76.548C154.578 75.936 155.088 75.462 155.736 75.126C156.384 74.778 157.122 74.604 157.95 74.604C158.79 74.604 159.528 74.778 160.164 75.126C160.812 75.462 161.316 75.936 161.676 76.548C162.048 77.16 162.234 77.874 162.234 78.69V84H160.578V78.708C160.578 78.156 160.452 77.682 160.2 77.286C159.96 76.878 159.636 76.566 159.228 76.35C158.832 76.134 158.406 76.026 157.95 76.026C157.494 76.026 157.062 76.134 156.654 76.35C156.258 76.566 155.934 76.878 155.682 77.286C155.442 77.682 155.322 78.156 155.322 78.708V84H153.666ZM170.027 84V74.82H171.701V84H170.027ZM170.873 73.362C170.573 73.362 170.309 73.254 170.081 73.038C169.865 72.81 169.757 72.546 169.757 72.246C169.757 71.946 169.865 71.688 170.081 71.472C170.309 71.244 170.573 71.13 170.873 71.13C171.173 71.13 171.431 71.244 171.647 71.472C171.875 71.688 171.989 71.946 171.989 72.246C171.989 72.546 171.875 72.81 171.647 73.038C171.431 73.254 171.173 73.362 170.873 73.362ZM174.516 84V78.69C174.516 77.874 174.696 77.16 175.056 76.548C175.428 75.936 175.938 75.462 176.586 75.126C177.234 74.778 177.972 74.604 178.8 74.604C179.64 74.604 180.378 74.778 181.014 75.126C181.662 75.462 182.166 75.936 182.526 76.548C182.898 77.16 183.084 77.874 183.084 78.69V84H181.428V78.708C181.428 78.156 181.302 77.682 181.05 77.286C180.81 76.878 180.486 76.566 180.078 76.35C179.682 76.134 179.256 76.026 178.8 76.026C178.344 76.026 177.912 76.134 177.504 76.35C177.108 76.566 176.784 76.878 176.532 77.286C176.292 77.682 176.172 78.156 176.172 78.708V84H174.516ZM189.045 84C188.229 84 187.587 83.766 187.119 83.298C186.663 82.83 186.435 82.194 186.435 81.39V72.516H188.091V81.282C188.091 81.678 188.199 81.996 188.415 82.236C188.643 82.464 188.955 82.578 189.351 82.578H191.205V84H189.045ZM184.851 76.242V74.82H191.241V76.242H184.851ZM197.482 84.216C196.546 84.216 195.718 84.006 194.998 83.586C194.278 83.154 193.708 82.578 193.288 81.858C192.868 81.126 192.658 80.31 192.658 79.41C192.658 78.51 192.868 77.7 193.288 76.98C193.708 76.248 194.278 75.672 194.998 75.252C195.718 74.82 196.546 74.604 197.482 74.604C198.418 74.604 199.246 74.82 199.966 75.252C200.698 75.672 201.268 76.242 201.676 76.962C202.096 77.682 202.306 78.498 202.306 79.41C202.306 80.31 202.096 81.126 201.676 81.858C201.268 82.578 200.698 83.154 199.966 83.586C199.246 84.006 198.418 84.216 197.482 84.216ZM197.482 82.794C198.118 82.794 198.67 82.644 199.138 82.344C199.606 82.044 199.972 81.642 200.236 81.138C200.5 80.622 200.632 80.046 200.632 79.41C200.632 78.774 200.5 78.204 200.236 77.7C199.972 77.184 199.606 76.776 199.138 76.476C198.67 76.176 198.118 76.026 197.482 76.026C196.858 76.026 196.306 76.176 195.826 76.476C195.358 76.776 194.992 77.184 194.728 77.7C194.464 78.204 194.332 78.774 194.332 79.41C194.332 80.046 194.464 80.622 194.728 81.138C194.992 81.642 195.358 82.044 195.826 82.344C196.306 82.644 196.858 82.794 197.482 82.794ZM213.067 87.654V84.144C212.395 84.048 211.795 83.826 211.267 83.478C210.751 83.118 210.343 82.656 210.043 82.092C209.743 81.516 209.593 80.862 209.593 80.13V74.82H211.267V80.112C211.267 80.664 211.387 81.144 211.627 81.552C211.867 81.948 212.185 82.254 212.581 82.47C212.989 82.686 213.421 82.794 213.877 82.794C214.345 82.794 214.777 82.686 215.173 82.47C215.581 82.254 215.905 81.948 216.145 81.552C216.397 81.144 216.523 80.664 216.523 80.112V74.82H218.179V80.13C218.179 80.862 218.029 81.51 217.729 82.074C217.441 82.638 217.033 83.1 216.505 83.46C215.989 83.808 215.395 84.036 214.723 84.144V87.654H213.067ZM225.328 84.216C224.392 84.216 223.564 84.006 222.844 83.586C222.124 83.154 221.554 82.578 221.134 81.858C220.714 81.126 220.504 80.31 220.504 79.41C220.504 78.51 220.714 77.7 221.134 76.98C221.554 76.248 222.124 75.672 222.844 75.252C223.564 74.82 224.392 74.604 225.328 74.604C226.264 74.604 227.092 74.82 227.812 75.252C228.544 75.672 229.114 76.242 229.522 76.962C229.942 77.682 230.152 78.498 230.152 79.41C230.152 80.31 229.942 81.126 229.522 81.858C229.114 82.578 228.544 83.154 227.812 83.586C227.092 84.006 226.264 84.216 225.328 84.216ZM225.328 82.794C225.964 82.794 226.516 82.644 226.984 82.344C227.452 82.044 227.818 81.642 228.082 81.138C228.346 80.622 228.478 80.046 228.478 79.41C228.478 78.774 228.346 78.204 228.082 77.7C227.818 77.184 227.452 76.776 226.984 76.476C226.516 76.176 225.964 76.026 225.328 76.026C224.704 76.026 224.152 76.176 223.672 76.476C223.204 76.776 222.838 77.184 222.574 77.7C222.31 78.204 222.178 78.774 222.178 79.41C222.178 80.046 222.31 80.622 222.574 81.138C222.838 81.642 223.204 82.044 223.672 82.344C224.152 82.644 224.704 82.794 225.328 82.794ZM236.778 84.216C235.95 84.216 235.206 84.048 234.546 83.712C233.898 83.364 233.388 82.884 233.016 82.272C232.656 81.66 232.476 80.946 232.476 80.13V74.82H234.15V80.112C234.15 80.664 234.27 81.144 234.51 81.552C234.75 81.948 235.068 82.254 235.464 82.47C235.872 82.686 236.304 82.794 236.76 82.794C237.228 82.794 237.66 82.686 238.056 82.47C238.464 82.254 238.788 81.948 239.028 81.552C239.28 81.144 239.406 80.664 239.406 80.112V74.82H241.08V80.13C241.08 80.946 240.894 81.66 240.522 82.272C240.15 82.884 239.64 83.364 238.992 83.712C238.344 84.048 237.606 84.216 236.778 84.216ZM243.854 84V77.43C243.854 76.614 244.082 75.978 244.538 75.522C245.006 75.054 245.648 74.82 246.464 74.82H248.354V76.242H246.77C246.374 76.242 246.062 76.356 245.834 76.584C245.618 76.812 245.51 77.13 245.51 77.538V84H243.854ZM258.865 84.216C257.977 84.216 257.209 84.006 256.561 83.586C255.913 83.154 255.415 82.572 255.067 81.84C254.719 81.108 254.545 80.298 254.545 79.41C254.545 78.51 254.737 77.7 255.121 76.98C255.505 76.248 256.057 75.672 256.777 75.252C257.497 74.82 258.361 74.604 259.369 74.604C260.341 74.604 261.175 74.814 261.871 75.234C262.567 75.654 263.101 76.224 263.473 76.944C263.857 77.664 264.049 78.468 264.049 79.356V84H262.375V82.128H262.339C262.159 82.476 261.913 82.812 261.601 83.136C261.301 83.448 260.923 83.706 260.467 83.91C260.011 84.114 259.477 84.216 258.865 84.216ZM259.297 82.794C259.897 82.794 260.425 82.65 260.881 82.362C261.349 82.062 261.709 81.654 261.961 81.138C262.225 80.61 262.357 80.022 262.357 79.374C262.357 78.738 262.231 78.168 261.979 77.664C261.739 77.16 261.391 76.764 260.935 76.476C260.479 76.176 259.945 76.026 259.333 76.026C258.685 76.026 258.127 76.176 257.659 76.476C257.203 76.776 256.849 77.184 256.597 77.7C256.357 78.204 256.237 78.78 256.237 79.428C256.237 80.052 256.357 80.622 256.597 81.138C256.837 81.642 257.185 82.044 257.641 82.344C258.097 82.644 258.649 82.794 259.297 82.794ZM271.331 84C270.383 84 269.537 83.796 268.793 83.388C268.049 82.98 267.461 82.434 267.029 81.75C266.597 81.054 266.381 80.274 266.381 79.41C266.381 78.546 266.597 77.772 267.029 77.088C267.461 76.392 268.049 75.84 268.793 75.432C269.537 75.024 270.383 74.82 271.331 74.82H272.411V76.242H271.277C270.665 76.242 270.113 76.386 269.621 76.674C269.141 76.95 268.757 77.328 268.469 77.808C268.193 78.288 268.055 78.822 268.055 79.41C268.055 79.998 268.193 80.532 268.469 81.012C268.757 81.492 269.141 81.876 269.621 82.164C270.113 82.44 270.665 82.578 271.277 82.578H272.411V84H271.331ZM278.949 84C278.001 84 277.155 83.796 276.411 83.388C275.667 82.98 275.079 82.434 274.647 81.75C274.215 81.054 273.999 80.274 273.999 79.41C273.999 78.546 274.215 77.772 274.647 77.088C275.079 76.392 275.667 75.84 276.411 75.432C277.155 75.024 278.001 74.82 278.949 74.82H280.029V76.242H278.895C278.283 76.242 277.731 76.386 277.239 76.674C276.759 76.95 276.375 77.328 276.087 77.808C275.811 78.288 275.673 78.822 275.673 79.41C275.673 79.998 275.811 80.532 276.087 81.012C276.375 81.492 276.759 81.876 277.239 82.164C277.731 82.44 278.283 82.578 278.895 82.578H280.029V84H278.949ZM286.441 84.216C285.505 84.216 284.677 84.006 283.957 83.586C283.237 83.154 282.667 82.578 282.247 81.858C281.827 81.126 281.617 80.31 281.617 79.41C281.617 78.51 281.827 77.7 282.247 76.98C282.667 76.248 283.237 75.672 283.957 75.252C284.677 74.82 285.505 74.604 286.441 74.604C287.377 74.604 288.205 74.82 288.925 75.252C289.657 75.672 290.227 76.242 290.635 76.962C291.055 77.682 291.265 78.498 291.265 79.41C291.265 80.31 291.055 81.126 290.635 81.858C290.227 82.578 289.657 83.154 288.925 83.586C288.205 84.006 287.377 84.216 286.441 84.216ZM286.441 82.794C287.077 82.794 287.629 82.644 288.097 82.344C288.565 82.044 288.931 81.642 289.195 81.138C289.459 80.622 289.591 80.046 289.591 79.41C289.591 78.774 289.459 78.204 289.195 77.7C288.931 77.184 288.565 76.776 288.097 76.476C287.629 76.176 287.077 76.026 286.441 76.026C285.817 76.026 285.265 76.176 284.785 76.476C284.317 76.776 283.951 77.184 283.687 77.7C283.423 78.204 283.291 78.774 283.291 79.41C283.291 80.046 283.423 80.622 283.687 81.138C283.951 81.642 284.317 82.044 284.785 82.344C285.265 82.644 285.817 82.794 286.441 82.794ZM297.891 84.216C297.063 84.216 296.319 84.048 295.659 83.712C295.011 83.364 294.501 82.884 294.129 82.272C293.769 81.66 293.589 80.946 293.589 80.13V74.82H295.263V80.112C295.263 80.664 295.383 81.144 295.623 81.552C295.863 81.948 296.181 82.254 296.577 82.47C296.985 82.686 297.417 82.794 297.873 82.794C298.341 82.794 298.773 82.686 299.169 82.47C299.577 82.254 299.901 81.948 300.141 81.552C300.393 81.144 300.519 80.664 300.519 80.112V74.82H302.193V80.13C302.193 80.946 302.007 81.66 301.635 82.272C301.263 82.884 300.753 83.364 300.105 83.712C299.457 84.048 298.719 84.216 297.891 84.216ZM305.021 84V78.69C305.021 77.874 305.201 77.16 305.561 76.548C305.933 75.936 306.443 75.462 307.091 75.126C307.739 74.778 308.477 74.604 309.305 74.604C310.145 74.604 310.883 74.778 311.519 75.126C312.167 75.462 312.671 75.936 313.031 76.548C313.403 77.16 313.589 77.874 313.589 78.69V84H311.933V78.708C311.933 78.156 311.807 77.682 311.555 77.286C311.315 76.878 310.991 76.566 310.583 76.35C310.187 76.134 309.761 76.026 309.305 76.026C308.849 76.026 308.417 76.134 308.009 76.35C307.613 76.566 307.289 76.878 307.037 77.286C306.797 77.682 306.677 78.156 306.677 78.708V84H305.021ZM319.55 84C318.734 84 318.092 83.766 317.624 83.298C317.168 82.83 316.94 82.194 316.94 81.39V72.516H318.596V81.282C318.596 81.678 318.704 81.996 318.92 82.236C319.148 82.464 319.46 82.578 319.856 82.578H321.71V84H319.55ZM315.356 76.242V74.82H321.746V76.242H315.356Z" fill="white"/>
</g>
<defs>
<filter id="filter0_d_140_3759" x="0" y="0" width="390" height="100" filterUnits="userSpaceOnUse" color-interpolation-filters="sRGB">
<feFlood flood-opacity="0" result="BackgroundImageFix"/>
<feColorMatrix in="SourceAlpha" type="matrix" values="0 0 0 0 0 0 0 0 0 0 0 0 0 0 0 0 0 0 127 0" result="hardAlpha"/>
<feOffset dx="4" dy="4"/>
<feGaussianBlur stdDeviation="2"/>
<feComposite in2="hardAlpha" operator="out"/>
<feColorMatrix type="matrix" values="0 0 0 0 0 0 0 0 0 0 0 0 0 0 0 0 0 0 0.25 0"/>
<feBlend mode="normal" in2="BackgroundImageFix" result="effect1_dropShadow_140_3759"/>
<feBlend mode="normal" in="SourceGraphic" in2="effect1_dropShadow_140_3759" result="shape"/>
</filter>
</defs>
</svg>
