<svg width="18" height="32" viewBox="0 0 18 32" fill="none" xmlns="http://www.w3.org/2000/svg">
<path d="M15.6261 31.9468H2.37369C1.79672 31.9468 1.32684 31.4786 1.32684 30.9017L0.666626 0.444377H17.3332L16.673 30.9017C16.673 31.4786 16.2031 31.9468 15.6261 31.9468Z" fill="#C5EAFF"/>
<path d="M15.6024 31.9468H9V0.444377H17.3333L16.6731 30.8791C16.6731 31.4685 16.1913 31.9468 15.6024 31.9468Z" fill="#B0DCF9"/>
<path d="M13.9784 30.5107H4.02125C2.88516 30.5107 2.56995 28.8411 2.56995 26.2614L2.70674 8.20947H15.2929L15.4297 28.2606C15.4297 28.8411 15.1264 30.5107 13.9784 30.5107Z" fill="#4AA9FF"/>
<path d="M9 30.5107H13.9786C15.2277 30.5107 15.4299 28.8411 15.4299 28.2606L15.2931 8.20947H9V30.5107Z" fill="#369FFF"/>
<path d="M12.6579 26.7709C12.6579 27.6732 11.9263 28.4048 11.0222 28.4048C10.1181 28.4048 9.38647 27.6732 9.38647 26.7709C9.38647 25.8679 10.1181 25.1363 11.0222 25.1363C11.9263 25.1363 12.6579 25.8679 12.6579 26.7709Z" fill="#B0DCF9"/>
<path d="M9.73156 23.7444C9.73156 24.3219 9.26169 24.79 8.68472 24.79C8.10775 24.79 7.63782 24.3219 7.63782 23.7444C7.63782 23.1662 8.10775 22.6981 8.68472 22.6981C9.26169 22.6981 9.73156 23.1662 9.73156 23.7444Z" fill="#B0DCF9"/>
<path d="M11.1888 19.6045C11.1888 20.0214 10.8497 20.3599 10.4333 20.3599C10.017 20.3599 9.67798 20.0214 9.67798 19.6045C9.67798 19.1875 10.017 18.8496 10.4333 18.8496C10.8497 18.8496 11.1888 19.1875 11.1888 19.6045Z" fill="#B0DCF9"/>
<path d="M2.67711 7.75286L2.25476 1.0969H15.7094L15.293 7.77246L2.67711 7.75286Z" fill="#4AA9FF"/>
<path d="M9 7.77246H15.2931L15.7273 1.0969H9V7.77246Z" fill="#369FFF"/>
</svg>
