<svg width="12" height="13" viewBox="0 0 12 13" fill="none" xmlns="http://www.w3.org/2000/svg">
<path d="M6.2608 3.82012L2.07227 8.00865C1.91793 8.16328 1.82038 8.36554 1.79547 8.58259L1.62858 10.048C1.6177 10.151 1.62868 10.2552 1.66081 10.3537C1.69293 10.4522 1.74547 10.5429 1.815 10.6197C1.88453 10.6965 1.96949 10.7578 2.06432 10.7996C2.15915 10.8413 2.26172 10.8626 2.36534 10.8621H2.45082L3.9162 10.6952C4.13238 10.6702 4.3342 10.5743 4.49014 10.4224L8.67867 6.22985L6.2608 3.82012ZM10.0952 3.46598L9.0328 2.40359C8.94393 2.31436 8.83831 2.24356 8.722 2.19525C8.6057 2.14694 8.481 2.12207 8.35506 2.12207C8.22913 2.12207 8.10443 2.14694 7.98812 2.19525C7.87182 2.24356 7.7662 2.31436 7.67733 2.40359L6.69227 3.38864L9.11014 5.80651L10.0952 4.82146C10.1844 4.73258 10.2552 4.62696 10.3035 4.51066C10.3518 4.39436 10.3767 4.26966 10.3767 4.14372C10.3767 4.01778 10.3518 3.89308 10.3035 3.77678C10.2552 3.66048 10.1844 3.55486 10.0952 3.46598Z" fill="white"/>
</svg>
