<svg width="19" height="17" viewBox="0 0 19 17" fill="none" xmlns="http://www.w3.org/2000/svg">
<g id="Group">
<path id="Vector" fill-rule="evenodd" clip-rule="evenodd" d="M9.81394 9.72062C9.25644 9.72062 8.70061 9.53645 8.23561 9.16812L4.49811 6.15479C4.22895 5.93812 4.18728 5.54395 4.40311 5.27562C4.62061 5.00812 5.01394 4.96562 5.28228 5.18145L9.01645 8.19145C9.48561 8.56312 10.1464 8.56312 10.6189 8.18812L14.3156 5.18312C14.5839 4.96395 14.9773 5.00562 15.1956 5.27395C15.4131 5.54145 15.3723 5.93479 15.1048 6.15312L11.4014 9.16312C10.9331 9.53479 10.3731 9.72062 9.81394 9.72062Z" fill="black"/>
<g id="Mask Group">
<mask id="mask0_305_1938" style="mask-type:luminance" maskUnits="userSpaceOnUse" x="0" y="0" width="19" height="17">
<path id="Vector_2" fill-rule="evenodd" clip-rule="evenodd" d="M0.833252 0.166626H18.7498V16.4166H0.833252V0.166626Z" fill="white"/>
</mask>
<g mask="url(#mask0_305_1938)">
<path id="Exclude" fill-rule="evenodd" clip-rule="evenodd" d="M5.69909 15.1666H13.8824C13.8841 15.165 13.8908 15.1666 13.8958 15.1666C14.8466 15.1666 15.6899 14.8266 16.3366 14.1808C17.0874 13.4333 17.4999 12.3591 17.4999 11.1566V5.43329C17.4999 3.10579 15.9783 1.41663 13.8824 1.41663H5.70075C3.60492 1.41663 2.08325 3.10579 2.08325 5.43329V11.1566C2.08325 12.3591 2.49659 13.4333 3.24659 14.1808C3.89325 14.8266 4.73742 15.1666 5.68742 15.1666H5.69909ZM5.68492 16.4166C4.39909 16.4166 3.25075 15.95 2.36409 15.0666C1.37659 14.0816 0.833252 12.6933 0.833252 11.1566V5.43329C0.833252 2.43079 2.92575 0.166626 5.70075 0.166626H13.8824C16.6574 0.166626 18.7499 2.43079 18.7499 5.43329V11.1566C18.7499 12.6933 18.2066 14.0816 17.2191 15.0666C16.3333 15.9491 15.1841 16.4166 13.8958 16.4166H13.8824H5.70075H5.68492Z" fill="black"/>
</g>
</g>
</g>
</svg>
