<svg width="20" height="24" viewBox="0 0 20 24" fill="none" xmlns="http://www.w3.org/2000/svg">
<path d="M19.7433 20.3225C19.7284 20.1518 19.7085 19.9815 19.6837 19.812C19.6837 19.8117 19.5846 19.2616 19.5655 19.1777C19.3451 18.2107 18.7443 17.5017 17.9326 16.9517C17.7808 16.8488 17.6233 16.7596 17.4638 16.6758C17.2535 16.5652 14.0757 15.5209 13.993 15.495C14.0126 15.6036 14.0259 15.7238 14.0303 15.8544C14.4728 16.1651 15.777 17.2865 15.1848 19.385C15.1848 19.385 14.2485 18.2689 13.2933 18.1255C12.3835 19.7114 10.8347 21.7188 10.0006 22.2457C9.16643 21.7188 7.61771 19.7113 6.70793 18.1254C5.75266 18.2689 4.81641 19.385 4.81641 19.385C4.22414 17.2866 5.52837 16.1651 5.97088 15.8544C5.97528 15.7238 5.98863 15.6036 6.00814 15.495C5.92542 15.5209 2.74761 16.5652 2.53737 16.6757C2.3779 16.7596 2.22035 16.8488 2.06852 16.9517C1.25688 17.5016 0.656087 18.2107 0.435712 19.1777C0.416563 19.2618 0.317483 19.8118 0.317483 19.8119C0.292679 19.9815 0.272804 20.1518 0.257883 20.3225C0.257246 20.3296 0.221649 21.2179 0.22168 21.223C0.22168 21.223 0.230844 21.6393 0.236003 21.7387C0.264529 22.2908 0.38036 22.8044 0.783359 23.2322C1.29691 23.7773 1.92071 24.0004 2.65227 24C5.10167 23.9989 7.55116 23.9986 10.0006 23.9985C12.4501 23.9986 14.8995 23.9989 17.3489 24C18.0804 24.0005 18.7042 23.7773 19.2178 23.2322C19.6208 22.8044 19.7366 22.2909 19.7651 21.7387C19.7703 21.6393 19.7795 21.223 19.7795 21.223C19.7795 21.2179 19.744 20.3296 19.7433 20.3225Z" fill="#C7A2DC"/>
<path d="M4.2373 10.3353C4.31337 10.6101 4.36205 10.8687 4.3602 11.1143C4.35979 11.195 4.35323 11.2757 4.34059 11.3555C4.27183 11.5878 3.78222 12.371 3.70405 12.5026C4.56676 13.4327 5.70933 13.6484 6.83618 13.8859C7.16935 13.956 7.50902 13.9982 7.86999 14.0449C7.9864 14.066 8.10362 14.0878 8.22161 14.1102L7.6491 15.7838C7.6491 15.7838 7.6328 18.2258 9.99353 19.7118H10.0083C12.369 18.2257 12.3528 15.7838 12.3528 15.7838L11.7803 14.1103C11.8982 14.0878 12.0155 14.0661 12.1319 14.0449C12.4929 13.9982 12.8325 13.956 13.1657 13.886C14.2926 13.6485 15.4351 13.4327 16.2978 12.5027C16.2197 12.371 15.73 11.5879 15.6613 11.3555C15.6486 11.2757 15.6421 11.1951 15.6417 11.1143C15.6398 10.8688 15.6885 10.6102 15.7645 10.3353C15.8369 10.0741 15.9201 9.81408 15.9995 9.55286C16.3809 8.70289 16.5933 7.75927 16.5933 6.76552C16.5933 3.07035 13.6563 0.0677026 10.0082 0.000515887V0C10.0058 3.03463e-05 10.0033 0.000182078 10.0008 0.000212424C9.99836 0.000182078 9.99596 6.06926e-05 9.99347 0V0.000455194C6.34545 0.0676419 3.40845 3.07029 3.40845 6.76546C3.40845 7.75915 3.62084 8.7028 4.00229 9.5528C4.08171 9.81402 4.16501 10.074 4.2373 10.3353Z" fill="#C7A2DC"/>
</svg>
