<svg width="26" height="26" viewBox="0 0 26 26" fill="none" xmlns="http://www.w3.org/2000/svg">
<path d="M12.9991 19.9435L11.2122 18.1566V18.1711H1.06519C1.51044 19.198 2.09031 20.1673 2.79591 21.0572H23.2024C23.908 20.1673 24.4879 19.198 24.9331 18.1712H14.7714L12.9991 19.9435ZM12.2075 7.918L12.9991 8.70968L13.7908 7.918C15.3086 6.4003 17.7589 6.37105 19.3138 7.82873H24.9331C24.4878 6.80188 23.908 5.83262 23.2024 4.94263H2.79596C2.09036 5.83257 1.51049 6.80188 1.06524 7.82873H6.68459C8.23946 6.37105 10.6897 6.4001 12.2075 7.918Z" fill="#C7A2DC"/>
<path d="M19.0474 10.7265C19.0474 10.0725 18.7928 9.4577 18.3303 8.99524C17.3757 8.0406 15.8225 8.04065 14.8679 8.99519L12.999 10.8641L11.1301 8.99519C10.6529 8.518 10.0258 8.27922 9.39889 8.27922C8.77184 8.27922 8.14505 8.51784 7.66766 8.99519C6.71307 9.94982 6.71307 11.5031 7.66766 12.4577L12.999 17.7891L18.3303 12.4578C18.7928 11.9953 19.0474 11.3804 19.0474 10.7265ZM6.81722 13.7617H0.0217285C0.0784004 14.7493 0.245166 15.716 0.516033 16.6478H9.70333L6.81722 13.7617ZM5.42719 10.7265C5.42673 10.2576 5.50929 9.79226 5.67104 9.35213H0.516033C0.245166 10.284 0.0784004 11.2506 0.0217285 12.2383H5.72406C5.52936 11.765 5.42719 11.2536 5.42719 10.7265ZM20.2715 12.2383H25.9763C25.9197 11.2507 25.7529 10.284 25.482 9.35218H20.3243C20.6662 10.2835 20.6491 11.3177 20.2715 12.2383ZM12.999 0C9.7146 0 6.61654 1.21042 4.21286 3.4192H21.7852C19.3815 1.21042 16.2835 0 12.999 0ZM12.999 26C16.2835 26 19.3816 24.7895 21.7853 22.5807H4.21281C6.61649 24.7895 9.71455 26 12.999 26ZM19.1808 13.7617L16.2947 16.6478H25.482C25.7529 15.716 25.9197 14.7493 25.9763 13.7617H19.1808V13.7617Z" fill="#C7A2DC"/>
</svg>
