<svg width="32" height="32" viewBox="0 0 32 32" fill="none" xmlns="http://www.w3.org/2000/svg">
<path d="M24.9874 25.5969V23.0625C24.8329 23.0963 24.6688 23.1156 24.5047 23.1156H21.0193C20.8551 23.1156 20.691 23.0963 20.5365 23.0625V25.5969C20.0414 25.7076 19.5986 25.9834 19.281 26.3791C18.9634 26.7748 18.7899 27.2667 18.789 27.7741C18.7903 28.3647 19.0258 28.9308 19.4439 29.348C19.8621 29.7652 20.4286 29.9995 21.0193 29.9995C21.7241 29.9995 22.3516 29.6712 22.762 29.1547C22.9697 29.4181 23.2344 29.631 23.5363 29.7773C23.8381 29.9237 24.1692 29.9996 24.5047 29.9995C25.0953 29.9995 25.6619 29.7652 26.08 29.348C26.4981 28.9308 26.7337 28.3647 26.7349 27.7741C26.7349 26.712 25.9867 25.819 24.9874 25.5969ZM2.10059 20.5088C2.37755 22.4676 3.10101 24.3365 4.21509 25.9712C5.32918 27.6059 6.80408 28.9627 8.52589 29.9368C8.5983 29.9754 8.68037 29.9995 8.76726 29.9995C8.85415 29.9995 8.93139 29.9802 9.00863 29.9368C12.523 27.9479 14.874 24.4383 15.4339 20.5088C11.0674 19.3572 6.47682 19.3572 2.11024 20.5088H2.10059ZM30.1576 8.4885C29.7328 5.13827 26.9908 2.43008 23.6309 2.04872C21.473 1.80734 19.3973 2.45905 17.7945 3.89279C17.0116 4.59345 16.385 5.45126 15.9558 6.41031C15.5266 7.36936 15.3044 8.40811 15.3036 9.45882C15.3036 11.4525 16.0808 13.3256 17.4904 14.7352C18.9 16.1448 19.6628 17.9309 19.6628 19.7895V20.7984C19.6628 21.5419 20.271 22.1501 21.0193 22.1501H24.5047C24.8636 22.1501 25.2079 22.0079 25.4622 21.7545C25.7164 21.5012 25.8599 21.1574 25.8612 20.7984V19.7943C25.8612 17.8682 26.5853 16.0917 27.8452 14.9186C29.3804 13.4897 30.2203 11.5394 30.2203 9.46847C30.2203 9.14503 30.201 8.81677 30.1576 8.4885ZM18.9 11.6553C18.6345 11.6553 18.4173 11.4381 18.4173 11.1726C18.4173 10.907 18.6345 10.6898 18.9 10.6898C19.1655 10.6898 19.3828 10.907 19.3828 11.1726C19.3828 11.4381 19.1655 11.6553 18.9 11.6553ZM20.3483 6.34512C20.0827 6.34512 19.8655 6.12789 19.8655 5.86238C19.8655 5.59687 20.0827 5.37964 20.3483 5.37964C20.6138 5.37964 20.831 5.59687 20.831 5.86238C20.831 6.12789 20.6138 6.34512 20.3483 6.34512ZM22.762 16C22.4965 16 22.2792 15.7827 22.2792 15.5172C22.2792 15.2517 22.4965 15.0345 22.762 15.0345C23.0275 15.0345 23.2447 15.2517 23.2447 15.5172C23.2447 15.7827 23.0275 16 22.762 16ZM23.3316 10.1974C23.0709 10.2457 22.8151 10.0719 22.7668 9.81122C22.7185 9.55054 22.8923 9.29468 23.153 9.24641C23.4137 9.19813 23.6695 9.37192 23.7178 9.6326C23.7661 9.89328 23.5923 10.1491 23.3316 10.1974ZM25.6584 13.1035C25.3929 13.1035 25.1757 12.8863 25.1757 12.6208C25.1757 12.3553 25.3929 12.138 25.6584 12.138C25.9239 12.138 26.1412 12.3553 26.1412 12.6208C26.1412 12.8863 25.9239 13.1035 25.6584 13.1035ZM26.6239 7.31061C26.3584 7.31061 26.1412 7.09338 26.1412 6.82787C26.1412 6.56236 26.3584 6.34512 26.6239 6.34512C26.8894 6.34512 27.1067 6.56236 27.1067 6.82787C27.1067 7.09338 26.8894 7.31061 26.6239 7.31061Z" fill="#C7A2DC"/>
<path d="M9.48603 7.76443L12.3342 4.2549C12.6721 3.83974 12.7397 3.27493 12.508 2.78736C12.2763 2.30462 11.7984 2.00049 11.2577 2.00049H6.26614C5.72546 2.00049 5.24755 2.30462 5.01583 2.78736C4.90219 3.02317 4.85818 3.2865 4.88896 3.54644C4.91975 3.80639 5.02405 4.05215 5.18962 4.2549L8.0378 7.76443C6.18264 8.92457 4.65259 10.537 3.5912 12.4503C2.52981 14.3637 1.97187 16.5153 1.96973 18.7034C1.96973 18.9834 1.97938 19.2634 1.99869 19.5385C4.20965 18.9689 6.48337 18.6792 8.76191 18.6792C11.0405 18.6792 13.3238 18.9689 15.5251 19.5385C15.5444 19.2634 15.5541 18.9834 15.5541 18.7034C15.5541 14.2477 13.2418 10.1106 9.48603 7.76443Z" fill="#C7A2DC"/>
</svg>
