<svg width="25" height="24" viewBox="0 0 25 24" fill="none" xmlns="http://www.w3.org/2000/svg">
<path fill-rule="evenodd" clip-rule="evenodd" d="M12.5 11C11.9247 11 11.4583 11.4477 11.4583 12C11.4583 12.5523 11.9247 13 12.5 13C13.0753 13 13.5417 12.5523 13.5417 12C13.5417 11.4477 13.0753 11 12.5 11ZM9.375 12C9.375 10.3431 10.7741 9 12.5 9C14.2259 9 15.625 10.3431 15.625 12C15.625 13.6569 14.2259 15 12.5 15C10.7741 15 9.375 13.6569 9.375 12Z" fill="white"/>
<path fill-rule="evenodd" clip-rule="evenodd" d="M5.87187 4.22296C6.27873 4.61343 6.27882 5.24659 5.87209 5.63718C4.11455 7.32492 3.12722 9.6137 3.12722 12.0002C3.12722 14.3867 4.11455 16.6754 5.87209 18.3632C6.27882 18.7538 6.27873 19.3869 5.87187 19.7774C5.46501 20.1679 4.80546 20.1678 4.39873 19.7772C2.25062 17.7144 1.04388 14.917 1.04388 12.0002C1.04388 9.08337 2.25062 6.28598 4.39873 4.22318C4.80546 3.83259 5.46501 3.8325 5.87187 4.22296ZM19.1281 4.22296C19.535 3.8325 20.1945 3.83259 20.6013 4.22318C22.7494 6.28598 23.9561 9.08337 23.9561 12.0002C23.9561 14.917 22.7494 17.7144 20.6013 19.7772C20.1945 20.1678 19.535 20.1679 19.1281 19.7774C18.7213 19.3869 18.7212 18.7538 19.1279 18.3632C20.8854 16.6754 21.8728 14.3867 21.8728 12.0002C21.8728 9.6137 20.8854 7.32492 19.1279 5.63718C18.7212 5.24659 18.7213 4.61343 19.1281 4.22296ZM8.82031 7.04346C9.22688 7.4342 9.22651 8.06737 8.81949 8.45768C8.33523 8.92204 7.95107 9.47348 7.68897 10.0805C7.42686 10.6875 7.29195 11.3381 7.29195 11.9952C7.29195 12.6523 7.42686 13.3029 7.68897 13.9099C7.95107 14.5169 8.33523 15.0683 8.81949 15.5327C9.22651 15.923 9.22688 16.5561 8.82031 16.9469C8.41374 17.3376 7.75419 17.338 7.34717 16.9477C6.66921 16.2976 6.13139 15.5255 5.76444 14.6758C5.39749 13.826 5.20862 12.9151 5.20862 11.9952C5.20862 11.0753 5.39749 10.1644 5.76444 9.31459C6.13139 8.46481 6.66921 7.69279 7.34717 7.04268C7.75419 6.65237 8.41374 6.65272 8.82031 7.04346ZM16.1797 7.05346C16.5862 6.66272 17.2458 6.66237 17.6528 7.05268C18.3308 7.70279 18.8686 8.47481 19.2355 9.32459C19.6025 10.1744 19.7914 11.0853 19.7914 12.0052C19.7914 12.9251 19.6025 13.836 19.2355 14.6858C18.8686 15.5355 18.3308 16.3076 17.6528 16.9577C17.2458 17.348 16.5862 17.3476 16.1797 16.9569C15.7731 16.5661 15.7735 15.933 16.1805 15.5427C16.6648 15.0783 17.0489 14.5269 17.311 13.9199C17.5731 13.3129 17.708 12.6623 17.708 12.0052C17.708 11.3481 17.5731 10.6975 17.311 10.0905C17.0489 9.48348 16.6648 8.93204 16.1805 8.46768C15.7735 8.07737 15.7731 7.4442 16.1797 7.05346Z" fill="white"/>
</svg>
