<svg width="40" height="40" viewBox="0 0 40 40" fill="none" xmlns="http://www.w3.org/2000/svg">
<path d="M28.4339 19.1577L24.6964 17.0877L23.7427 15.7465V20.7877L27.0327 21.8877C27.3894 22.0325 27.7874 22.0385 28.1482 21.9045C28.5091 21.7705 28.8067 21.5061 28.9824 21.1636C29.158 20.821 29.199 20.4251 29.0973 20.0538C28.9955 19.6826 28.7597 19.3628 28.4339 19.1577Z" fill="#C7A2DC"/>
<path d="M19.6738 9.98019C21.7372 9.98019 23.41 8.30741 23.41 6.24394C23.41 4.18047 21.7372 2.50769 19.6738 2.50769C17.6103 2.50769 15.9375 4.18047 15.9375 6.24394C15.9375 8.30741 17.6103 9.98019 19.6738 9.98019Z" fill="#C7A2DC"/>
<path d="M16.2717 25.2215C15.9676 24.9682 15.697 24.6771 15.4667 24.3552L15.1192 28.4802L10.6042 34.8427C10.3343 35.1561 10.195 35.5612 10.2153 35.9743C10.2356 36.3874 10.4139 36.7769 10.7132 37.0623C11.0126 37.3477 11.4102 37.5071 11.8238 37.5077C12.2373 37.5082 12.6353 37.3498 12.9355 37.0652L17.478 31.8527C18.0594 31.1859 18.5014 30.4094 18.778 29.569L19.373 27.759L16.2717 25.2215Z" fill="#C7A2DC"/>
<path d="M18.4841 11.2502H19.1241C21.0379 11.2502 22.5891 12.8002 22.5891 14.7152V20.8902C22.5891 21.6752 22.9016 22.4277 23.4566 22.9839L25.8479 25.3752C26.7025 26.2299 27.2979 27.309 27.5654 28.4877L29.1704 35.5577C29.2348 35.9833 29.1343 36.4175 28.8894 36.7714C28.6444 37.1254 28.2735 37.3725 27.8525 37.4622C27.4315 37.5519 26.9921 37.4774 26.6242 37.254C26.2562 37.0306 25.9875 36.6751 25.8729 36.2602L23.4104 29.5127L17.2304 24.4527C16.7424 24.053 16.3538 23.5457 16.095 22.9705C15.8363 22.3953 15.7144 21.7679 15.7391 21.1377L15.9229 16.3952L13.7179 18.1789L12.9816 21.8964C12.9015 22.3106 12.6617 22.6766 12.314 22.9154C11.9663 23.1542 11.5386 23.2466 11.1233 23.1728C10.708 23.0989 10.3385 22.8647 10.0944 22.5206C9.8504 22.1765 9.75151 21.7503 9.81911 21.3339L10.4954 17.0714C10.6485 16.1033 11.1754 15.2339 11.9629 14.6502L15.0004 12.4002C16.0083 11.6532 17.2296 11.2501 18.4841 11.2502Z" fill="#C7A2DC"/>
</svg>
