<svg width="15" height="17" viewBox="0 0 15 17" fill="none" xmlns="http://www.w3.org/2000/svg">
<path fill-rule="evenodd" clip-rule="evenodd" d="M11.1023 7.00001C10.7573 7.00001 10.4773 6.72001 10.4773 6.37501V4.58584C10.4773 2.83918 9.05647 1.41834 7.3098 1.41834H7.29646C6.4523 1.41834 5.66146 1.74334 5.06396 2.33584C4.4623 2.93084 4.1298 3.72501 4.12646 4.57168V6.37501C4.12646 6.72001 3.84646 7.00001 3.50146 7.00001C3.15646 7.00001 2.87646 6.72001 2.87646 6.37501V4.58584C2.88146 3.38584 3.34563 2.27834 4.18313 1.44834C5.02147 0.617509 6.12813 0.136676 7.3123 0.168342C9.74563 0.168342 11.7273 2.15001 11.7273 4.58584V6.37501C11.7273 6.72001 11.4473 7.00001 11.1023 7.00001Z" fill="black"/>
<path fill-rule="evenodd" clip-rule="evenodd" d="M4.11825 6.94067C2.71992 6.94067 1.58325 8.07734 1.58325 9.47567V13.0498C1.58325 14.4482 2.71992 15.5848 4.11825 15.5848H10.4858C11.8833 15.5848 13.0208 14.4482 13.0208 13.0498V9.47567C13.0208 8.07734 11.8833 6.94067 10.4858 6.94067H4.11825ZM10.4858 16.8348H4.11825C2.03075 16.8348 0.333252 15.1373 0.333252 13.0498V9.47567C0.333252 7.38817 2.03075 5.69067 4.11825 5.69067H10.4858C12.5733 5.69067 14.2708 7.38817 14.2708 9.47567V13.0498C14.2708 15.1373 12.5733 16.8348 10.4858 16.8348Z" fill="black"/>
<path fill-rule="evenodd" clip-rule="evenodd" d="M7.30176 12.813C6.95676 12.813 6.67676 12.533 6.67676 12.188V10.3372C6.67676 9.99216 6.95676 9.71216 7.30176 9.71216C7.64676 9.71216 7.92676 9.99216 7.92676 10.3372V12.188C7.92676 12.533 7.64676 12.813 7.30176 12.813Z" fill="black"/>
</svg>
