<svg width="24" height="28" viewBox="0 0 24 28" fill="none" xmlns="http://www.w3.org/2000/svg">
<path d="M6.5764 8.78391C6.67363 9.23121 6.82273 9.52076 6.99668 9.70119C7.41048 12.5816 9.99592 15.0363 12.0725 14.9337C14.7141 14.804 16.5865 11.9571 17.0068 9.70119C17.1807 9.52184 17.3482 9.13829 17.4487 8.68776C17.561 8.17024 17.682 7.39017 17.3709 6.97745C17.3196 6.92637 17.267 6.87665 17.2131 6.82835C17.5102 5.75658 18.1628 3.84424 16.5379 2.12529C15.6573 1.19397 14.4343 0.726147 13.329 0.356644C10.0661 -0.733499 7.7627 0.795294 6.69956 3.33752C6.62285 3.51795 6.12694 4.65995 6.72765 6.82835C6.66743 6.86852 6.61477 6.919 6.57207 6.97745C6.25983 7.38909 6.46295 8.26639 6.5764 8.78391Z" fill="#C7A2DC"/>
<path d="M23.4518 24.6249C23.361 22.6423 23.2486 19.5005 21.5167 16.9301C21.5167 16.9301 21.023 16.257 19.8518 15.8097C19.8518 15.8097 17.3085 15.0351 16.1373 14.1978L15.6025 14.564L15.6619 18.0408L12.4509 26.6128C12.4168 26.7045 12.3554 26.7835 12.2751 26.8392C12.1947 26.895 12.0993 26.9249 12.0015 26.9249C11.9037 26.9249 11.8082 26.895 11.7279 26.8392C11.6476 26.7835 11.5862 26.7045 11.552 26.6128L8.34211 18.0408C8.34211 18.0408 8.40153 14.5748 8.40045 14.564C8.40801 14.5932 7.86456 14.1978 7.86456 14.1978C6.69555 15.0351 4.15116 15.8097 4.15116 15.8097C2.97999 16.257 2.48624 16.9301 2.48624 16.9301C0.755406 19.5005 0.640882 22.6423 0.550127 24.6249C0.487463 25.9949 0.774854 26.5059 1.13571 26.6517C5.61513 28.4496 18.3846 28.4496 22.8651 26.6517C23.2281 26.507 23.5134 25.9949 23.4518 24.6249Z" fill="#C7A2DC"/>
<path d="M12.1158 16.0409L11.971 16.0441C11.5043 16.0441 11.0332 15.9534 10.5708 15.7935L11.8435 17.7415L10.7015 18.8435L11.877 25.9818C11.8825 26.0111 11.898 26.0375 11.9209 26.0565C11.9438 26.0755 11.9726 26.0859 12.0024 26.0859C12.0321 26.0859 12.0609 26.0755 12.0838 26.0565C12.1067 26.0375 12.1222 26.0111 12.1277 25.9818L13.3032 18.8435L12.1601 17.7415L13.4145 15.8226C13.005 15.9426 12.5717 16.0225 12.1158 16.0409Z" fill="#C7A2DC"/>
</svg>
