<svg width="40" height="40" viewBox="0 0 40 40" fill="none" xmlns="http://www.w3.org/2000/svg">
<path fill-rule="evenodd" clip-rule="evenodd" d="M24.5919 25.011V16.8696C24.5919 14.3305 22.5278 12.2657 19.988 12.2657C18.6864 12.2657 17.4388 12.8266 16.5614 13.8032C16.5583 13.8094 16.552 13.8157 16.5458 13.8219L8.00752 22.3586C7.42393 22.943 7.42393 23.8938 8.00752 24.4774C8.28799 24.7586 8.66455 24.9141 9.06689 24.9141C9.46924 24.9141 9.84502 24.7594 10.1263 24.4774L19.3849 15.2204C19.5669 15.0375 19.8638 15.0375 20.045 15.2204C20.089 15.2637 20.1239 15.3153 20.1478 15.3722C20.1716 15.4292 20.1839 15.4903 20.1839 15.552C20.1839 15.6137 20.1716 15.6748 20.1478 15.7318C20.1239 15.7887 20.089 15.8403 20.045 15.8836L15.3841 20.5454V25.0102H24.5919V25.011ZM19.988 9.28677C21.963 9.28677 23.5677 7.68208 23.5677 5.70942C23.5677 3.73677 21.963 2.13208 19.988 2.13208C18.0161 2.13208 16.4114 3.73677 16.4114 5.70942C16.4114 7.68208 18.0161 9.28677 19.988 9.28677ZM24.8278 25.9485H15.0364L10.1739 28.6493C9.57393 28.9813 9.27393 29.6063 9.39189 30.2805L10.5278 36.775C10.6458 37.4454 11.2013 37.9133 11.8841 37.9133H11.9763C12.3716 37.9133 12.6974 37.7735 12.9716 37.486C13.2458 37.1977 13.37 36.8649 13.3481 36.4688L13.0544 30.6891C13.0419 30.4625 13.195 30.2594 13.4146 30.2086L19.8239 28.725C19.8591 28.7172 19.8942 28.7133 19.9294 28.7133C20.0442 28.7133 20.156 28.7547 20.2419 28.8313L30.0942 37.5672C30.3591 37.8032 30.6497 37.9133 31.0067 37.9133C31.5583 37.9133 32.0114 37.6297 32.2481 37.136C32.4778 36.6594 32.4169 36.125 32.0755 35.6711L24.8278 25.9485Z" fill="#C7A2DC"/>
</svg>
