<svg width="23" height="27" viewBox="0 0 23 27" fill="none" xmlns="http://www.w3.org/2000/svg">
<path fill-rule="evenodd" clip-rule="evenodd" d="M2.87288 8.4942C2.34643 4.28254 5.63041 0.5625 9.87485 0.5625H12.0035C16.2524 0.5625 19.5399 4.28647 19.0129 8.5026L18.9321 9.14876C18.7758 10.3989 19.2303 11.6479 20.1535 12.5053L20.2084 12.5562C22.225 14.429 22.6164 17.4749 21.1387 19.7967C20.173 21.3141 18.5538 22.2793 16.778 22.4197L16.5389 22.8295C15.2729 24.9998 13.3004 26.1875 11.2291 26.1875C9.15783 26.1875 7.18532 24.9998 5.91933 22.8295L5.68398 22.4261C3.56985 22.2945 1.67603 21.0353 0.74334 19.1125L0.614151 18.8462C-0.444162 16.6644 0.0509572 14.0469 1.83306 12.4024C2.69307 11.6088 3.11723 10.449 2.97208 9.28776L2.87288 8.4942ZM7.90005 22.4375C8.84922 23.7346 10.0777 24.3125 11.2291 24.3125C12.3805 24.3125 13.609 23.7346 14.5582 22.4375H7.90005Z" fill="#88CDD5"/>
</svg>
