<svg width="24" height="24" viewBox="0 0 24 24" fill="none" xmlns="http://www.w3.org/2000/svg">
<g clip-path="url(#clip0_950_5470)">
<path d="M7.251 16.6901C6.61631 16.326 6.1875 15.6421 6.1875 14.8594C6.1875 11.6285 8.81597 9 12.0469 9H14.4615L14.5752 7.125H0.893531L1.87627 23.3393C1.89877 23.7105 2.20627 24 2.57812 24H6.8925C6.45009 23.412 6.1875 22.6815 6.1875 21.8906C6.1875 20.9789 6.76903 20.2005 7.58058 19.9067C7.29291 19.4656 7.125 18.9397 7.125 18.375C7.125 17.8097 7.29328 17.2833 7.58147 16.8419C7.35225 16.7902 7.22498 16.7395 7.251 16.6901ZM7.73362 5.71894C7.73419 5.71894 7.73475 5.71875 7.73531 5.71875H14.7656C15.154 5.71875 15.4688 5.40398 15.4688 5.01562C15.4688 4.62727 15.154 4.3125 14.7656 4.3125H9.03239L10.9277 1.40625H13.3594C13.7477 1.40625 14.0625 1.09148 14.0625 0.703125C14.0625 0.314766 13.7477 3.75418e-08 13.3594 3.75418e-08H10.5469C10.4299 -3.81879e-05 10.3148 0.0291153 10.212 0.0848171C10.1091 0.140519 10.0218 0.221007 9.95798 0.318984L7.35352 4.3125H0.703125C0.314766 4.3125 0 4.62727 0 5.01562C0 5.40398 0.314766 5.71875 0.703125 5.71875H7.73109C7.73203 5.71875 7.73292 5.71894 7.73362 5.71894Z" fill="#C7A2DC"/>
<path d="M7.59375 14.8594C7.59375 15.2477 7.90852 15.5625 8.29688 15.5625H23.2969C23.6852 15.5625 24 15.2477 24 14.8594C24 12.4039 22.0023 10.4062 19.5469 10.4062H12.0469C9.59142 10.4062 7.59375 12.4039 7.59375 14.8594ZM9.9375 16.9688C9.16078 16.9688 8.53125 17.5983 8.53125 18.375C8.53125 19.1517 9.16078 19.7812 9.9375 19.7812H21.6562C22.433 19.7812 23.0625 19.1517 23.0625 18.375C23.0625 17.5983 22.433 16.9688 21.6562 16.9688H9.9375ZM23.2969 21.1875H8.29688C7.90852 21.1875 7.59375 21.5023 7.59375 21.8906C7.59375 23.0537 8.54006 24 9.70312 24H21.8906C23.0537 24 24 23.0537 24 21.8906C24 21.5023 23.6852 21.1875 23.2969 21.1875Z" fill="#C7A2DC"/>
</g>
<defs>
<clipPath id="clip0_950_5470">
<rect width="24" height="24" fill="white"/>
</clipPath>
</defs>
</svg>
