<svg width="40" height="40" viewBox="0 0 40 40" fill="none" xmlns="http://www.w3.org/2000/svg">
<path d="M4.33079 12.2348C4.04619 11.8087 4.20368 11.204 4.68233 10.8844C4.99069 10.6786 5.35662 10.6421 5.65447 10.7555C5.85682 10.5733 6.11787 10.4699 6.39009 10.464L6.97164 10.4465C6.94754 9.89521 6.74882 9.34747 6.36337 8.89474C5.44319 7.81422 3.82154 7.68402 2.74101 8.60408C1.66025 9.52426 1.53017 11.1461 2.45035 12.2267C3.32873 13.2581 4.84542 13.4212 5.92138 12.6336C5.82676 12.588 5.7389 12.5295 5.6603 12.4598C5.18953 12.7397 4.60512 12.6457 4.33079 12.2348ZM4.62545 24.4767V18.8276L1.01669 17.8028C0.794221 17.7398 0.596306 17.6103 0.449411 17.4317C0.17394 17.6823 0 18.0427 0 18.4445V27.389H4.62545V26.5896H12.9925C12.5575 25.849 12.0667 25.1427 11.5245 24.4767H4.62545ZM21.3648 24.9308V24.4767H15.5799C16.0031 25.1577 16.3856 25.8633 16.7253 26.5896H22.2537C21.7153 26.2409 21.3648 25.6348 21.3648 24.9308Z" fill="#C7A2DC"/>
<path d="M5.14746 21.317V22.6112C5.14746 23.3682 5.7611 23.9817 6.51797 23.9817H11.1053C9.86565 22.5708 8.81699 21.8575 8.80614 21.8505C8.75002 21.813 8.69631 21.772 8.64533 21.7278C7.78614 21.1005 7.04481 20.5468 6.37578 19.9539C5.68573 20.0251 5.14746 20.6081 5.14746 21.317ZM21.3653 20.5095C21.0947 20.7018 20.7724 20.808 20.4405 20.8141C20.055 20.8207 19.6793 20.6927 19.378 20.4521L18.745 19.9465H14.2012L13.3134 20.8197C13.204 20.9271 13.0802 21.0188 12.9455 21.092C13.1615 21.3153 13.3722 21.5436 13.5777 21.7766C14.1891 22.4722 14.752 23.209 15.2625 23.9817H21.3652L21.3653 20.5095ZM7.27665 19.7602L7.93621 19.7562L9.99848 18.7257L10.3364 18.3664L9.98911 17.9546L9.13586 16.1308L9.03261 15.6077L8.71591 15.1591L8.63311 14.6266L6.55371 15.7449L5.57312 16.0203L5.89964 16.4872L6.00288 16.8444L6.99935 17.1272C7.14378 17.1679 7.27872 17.2367 7.39637 17.3298C7.51403 17.4229 7.61207 17.5384 7.68484 17.6696C7.75834 17.8005 7.80511 17.9447 7.82243 18.0938C7.83974 18.2429 7.82725 18.3939 7.78568 18.5382C7.74301 18.6906 7.66894 18.8323 7.56821 18.9544C7.46749 19.0764 7.34234 19.176 7.20082 19.2468L7.21087 19.2656L7.27665 19.7602Z" fill="#C7A2DC"/>
<path d="M0.906887 15.8951C0.890803 15.9036 0.87496 15.9125 0.859376 15.9219C0.848412 15.9285 0.837562 15.935 0.826941 15.9421C0.813236 15.9511 0.799873 15.9607 0.786625 15.9705C0.762975 15.9877 0.740289 16.0063 0.718671 16.026C0.707821 16.0357 0.696971 16.0454 0.686806 16.0556C0.676046 16.0664 0.665573 16.0775 0.655399 16.0888C0.645806 16.0993 0.636212 16.1098 0.62719 16.1207C0.61718 16.1328 0.607544 16.1452 0.598295 16.1579C0.590072 16.1689 0.581734 16.1797 0.574197 16.1912C0.565288 16.2043 0.557065 16.2178 0.548728 16.2316C0.54137 16.2433 0.534362 16.2553 0.527714 16.2674C0.520404 16.2808 0.513666 16.2946 0.506928 16.3084C0.500418 16.322 0.494136 16.3355 0.488198 16.3492C0.476385 16.3777 0.465867 16.4068 0.456676 16.4362C0.454734 16.4425 0.452222 16.4485 0.450394 16.4548C0.448453 16.4614 0.447539 16.4679 0.445826 16.4745C0.430702 16.5334 0.42118 16.5935 0.417388 16.6542C0.415774 16.6839 0.415583 16.7137 0.416817 16.7435C0.417502 16.7592 0.418873 16.7749 0.420243 16.7906C0.4215 16.8045 0.42287 16.8183 0.424812 16.832C0.429236 16.8614 0.434875 16.8906 0.441715 16.9196C0.456079 16.9787 0.476398 17.0362 0.502359 17.0912C0.505443 17.098 0.507841 17.1047 0.511039 17.1113C0.513323 17.1159 0.516407 17.1198 0.518577 17.1242C0.536394 17.1584 0.555466 17.1919 0.577395 17.2236C0.57945 17.2266 0.581963 17.2293 0.584019 17.2323C0.610647 17.2695 0.640003 17.3048 0.671845 17.3377C0.694458 17.3612 0.718214 17.3837 0.743454 17.4049C0.747109 17.4078 0.750307 17.4114 0.75419 17.4142C0.78297 17.4376 0.813921 17.4591 0.845899 17.4789C0.85378 17.4838 0.862003 17.4882 0.869997 17.4929C0.895618 17.5078 0.921956 17.5214 0.948915 17.5337C0.957595 17.5377 0.966275 17.5419 0.975069 17.5456C1.00876 17.5597 1.04337 17.5725 1.07934 17.5828L1.0822 17.5836L1.083 17.5838L6.43767 19.1045C6.52664 19.13 6.61629 19.1411 6.70424 19.1395C6.92334 19.1355 7.13375 19.053 7.29708 18.9069C7.46041 18.7608 7.56578 18.5608 7.59399 18.3435C7.62219 18.1262 7.57134 17.906 7.45072 17.723C7.3301 17.5401 7.14773 17.4065 6.93688 17.3468L3.84913 16.4702L4.1527 16.319L5.74408 16.7707L5.69086 16.587L5.38592 16.1513L5.20125 15.8876L5.51133 15.8003L6.46737 15.5315L8.52518 14.4253L8.8091 14.2725L8.8589 14.5914L8.93336 15.071L9.21934 15.4758L9.24743 15.5155L9.25657 15.5634L9.35422 16.059L10.1831 17.8302L10.511 18.2189L10.6422 18.3745L10.5027 18.5225L10.1645 18.882L10.1369 18.912L10.1006 18.9298L8.03831 19.9604L7.99057 19.9843L7.93746 19.9845L7.27813 19.9885L7.0769 19.9896L7.0504 19.7903L6.98999 19.3367L6.98587 19.329C6.89537 19.3531 6.80231 19.3661 6.70869 19.3678H6.70823C6.59568 19.3698 6.48346 19.3551 6.3752 19.3242L5.90192 19.1898C6.72959 20.0242 7.65799 20.724 8.78774 21.5486C8.83366 21.5883 8.88162 21.6265 8.93359 21.6608V21.6606H8.93382C9.00703 21.7098 10.1129 22.4761 11.387 23.9563C12.6692 25.4448 14.1171 27.6433 14.9186 30.5771C15.0943 31.2205 15.6828 31.6404 16.3205 31.6289C16.4393 31.6265 16.5574 31.6095 16.672 31.5783C17.4324 31.3704 17.8806 30.5855 17.6727 29.8247C16.7045 26.2817 14.9338 23.6614 13.4065 21.9275C13.1292 21.6128 12.8419 21.3071 12.545 21.0109C12.7743 20.9458 12.9836 20.8241 13.1535 20.6568H13.1533L16.2215 17.6385L19.5204 20.2738C20.0742 20.7161 20.8554 20.6781 21.3653 20.2185V18.0987C21.3445 18.0801 21.3245 18.0606 21.3024 18.0431L17.0142 14.6175C16.7416 14.3991 16.3983 14.2884 16.0495 14.3064C15.7007 14.3244 15.3706 14.4698 15.122 14.7151L12.1399 17.6487C10.5147 16.4094 10.1214 15.1658 9.85365 13.4798L10.0683 13.3728L12.2085 12.3069C12.2146 12.3039 12.2199 12.3002 12.2259 12.2971C12.2674 12.2751 12.3072 12.2501 12.3451 12.2223C12.3679 12.2052 12.39 12.1871 12.4112 12.1682C12.4327 12.1488 12.4533 12.1285 12.4729 12.1073C12.4854 12.0937 12.4976 12.0799 12.5091 12.0656C12.5164 12.0567 12.5232 12.0478 12.5301 12.0386C12.5406 12.0249 12.5506 12.0108 12.5603 11.9965C12.5677 11.9854 12.5746 11.9742 12.5815 11.9629C12.6045 11.9256 12.6245 11.8866 12.6415 11.8462C12.6482 11.8307 12.6543 11.8149 12.6599 11.7989C12.664 11.7873 12.6681 11.7757 12.6718 11.7641C12.6855 11.7203 12.6959 11.6756 12.7029 11.6302C12.7103 11.5843 12.714 11.5378 12.7139 11.4912C12.7139 11.4838 12.7148 11.4767 12.7146 11.4694C12.7145 11.4641 12.7137 11.4589 12.7134 11.4537C12.7127 11.4357 12.7114 11.4178 12.7096 11.4C12.7083 11.3871 12.707 11.3739 12.7052 11.3612C12.7029 11.3454 12.7001 11.3297 12.697 11.3141C12.6943 11.2991 12.6911 11.2842 12.6875 11.2693C12.6843 11.2565 12.6804 11.2435 12.6767 11.2308C12.6717 11.2138 12.6663 11.1969 12.6604 11.1801C12.6566 11.1693 12.6522 11.1587 12.6479 11.148C12.6407 11.1302 12.633 11.1125 12.6248 11.095C12.6226 11.0906 12.6213 11.0861 12.619 11.0818C12.6159 11.0755 12.612 11.0699 12.6089 11.0639C12.5942 11.0354 12.5777 11.0078 12.5597 10.9813C12.5361 10.9458 12.5099 10.9121 12.4815 10.8803C12.4623 10.8589 12.4422 10.8384 12.4211 10.8189C12.4065 10.8054 12.3914 10.7923 12.376 10.7797C12.3685 10.7736 12.3606 10.7678 12.3531 10.762C12.3291 10.7434 12.304 10.7263 12.278 10.7107C12.252 10.6947 12.2252 10.6801 12.1976 10.6671C12.1706 10.6539 12.1429 10.6421 12.1146 10.6319C12.1008 10.6269 12.087 10.622 12.073 10.6177C12.0441 10.6087 12.0149 10.6012 11.9854 10.5952C11.9238 10.5824 11.861 10.5762 11.7982 10.5765C11.7926 10.5765 11.787 10.5759 11.7814 10.576L9.89545 10.6165L6.39576 10.6921C6.15351 10.6969 5.9231 10.7978 5.7552 10.9724C5.5873 11.1471 5.49567 11.3814 5.50048 11.6236C5.50528 11.8659 5.60611 12.0963 5.7808 12.2642C5.95549 12.4321 6.18972 12.5237 6.43196 12.5189L6.43527 12.5188L9.35376 12.4558L9.28604 12.6856L7.26146 12.7294L6.10555 13.305L1.53138 15.583L0.921962 15.8866C0.916823 15.8892 0.912026 15.8924 0.906887 15.8951ZM22.5654 13.1824L20.4523 8.31944L19.9419 8.41708L22.3295 13.2383L22.5654 13.1824ZM23.5458 13.2446L24.2532 7.98983L23.766 7.80927L23.315 13.1703L23.5458 13.2446ZM16.9528 10.7166L21.2612 13.9384L21.4463 13.782L17.3638 10.3988L16.9528 10.7166ZM32.3471 31.6807C29.5719 31.921 27.2287 31.3251 26.9195 30.3359C26.8895 30.4318 26.8782 30.5327 26.8863 30.6328C26.9802 31.7169 29.4253 32.3906 32.3471 32.1377C35.2692 31.8847 37.5621 30.8008 37.4682 29.7168C37.4629 29.6625 37.4518 29.6089 37.4349 29.557C37.1366 30.5352 35.0017 31.4509 32.3471 31.6807ZM38.1953 15.2968L23.418 14.2032C22.7917 14.1569 22.279 14.6329 22.279 15.261V24.9307C22.279 25.3467 22.5044 25.6947 22.8382 25.8698C22.7208 25.6931 22.6587 25.4855 22.6598 25.2734V15.6036C22.6598 14.9754 23.1723 14.4994 23.7988 14.5458L38.5761 15.6393C38.761 15.653 38.9355 15.7117 39.0905 15.8025C38.8815 15.5202 38.5578 15.3235 38.1953 15.2968Z" fill="#C7A2DC"/>
<path d="M39.9997 17.2369C39.9997 16.6087 39.4871 16.0569 38.8607 16.0106L24.0833 14.9171C23.457 14.8707 22.9443 15.3467 22.9443 15.9749V25.6446C22.9443 26.2727 23.4569 26.7486 24.0833 26.7024L29.74 26.2838V20.641L29.9927 20.6683L34.4087 21.1441L34.6126 21.166V25.9232L38.8606 25.6088C38.9305 25.6034 38.9998 25.5915 39.0676 25.5735C39.4746 25.4675 39.8065 25.1489 39.938 24.7533C39.9773 24.6351 39.9996 24.5105 39.9996 24.3823V17.2369H39.9997Z" fill="#C7A2DC"/>
<path d="M34.3842 21.3712L29.9682 20.8954V27.7148C29.891 27.7341 29.8149 27.7538 29.74 27.7743C28.0094 28.2456 26.8563 29.0203 26.9232 29.7953C26.9247 29.8119 26.9283 29.828 26.9307 29.8443C27.0935 30.8994 29.5067 31.5491 32.3842 31.3C35.0073 31.073 37.1219 30.1762 37.4595 29.211C37.498 29.1009 37.5146 28.99 37.505 28.8793C37.4407 28.1379 36.2765 27.5887 34.6125 27.3964C34.5365 27.3876 34.4603 27.3797 34.3841 27.3726V21.3712H34.3842Z" fill="#C7A2DC"/>
</svg>
