<svg width="24" height="24" viewBox="0 0 24 24" fill="none" xmlns="http://www.w3.org/2000/svg">
<mask id="mask0_1418_4597" style="mask-type:alpha" maskUnits="userSpaceOnUse" x="0" y="0" width="24" height="24">
<rect width="24" height="24" fill="#D9D9D9"/>
</mask>
<g mask="url(#mask0_1418_4597)">
<path d="M10.9595 21C10.7275 21 10.526 20.9237 10.3548 20.7712C10.1836 20.6186 10.0775 20.4282 10.0365 20.2L9.77304 18.1077C9.45387 18.0116 9.1087 17.8603 8.73754 17.6538C8.36637 17.4474 8.0507 17.2263 7.79054 16.9905L5.87504 17.8135C5.66354 17.907 5.44879 17.9173 5.23079 17.8443C5.01279 17.7711 4.84487 17.6326 4.72704 17.4288L3.64804 15.5712C3.5302 15.3674 3.49562 15.1546 3.54429 14.9327C3.59295 14.7109 3.70895 14.5288 3.89229 14.3865L5.56354 13.1365C5.53404 12.9558 5.5097 12.7697 5.49054 12.578C5.4712 12.3863 5.46154 12.2001 5.46154 12.0192C5.46154 11.8512 5.4712 11.6747 5.49054 11.4895C5.5097 11.3042 5.53404 11.0955 5.56354 10.8635L3.89229 9.6135C3.70895 9.47117 3.59612 9.28592 3.55379 9.05775C3.51162 8.82958 3.54945 8.6135 3.66729 8.4095L4.72704 6.6095C4.84487 6.4185 5.01279 6.28325 5.23079 6.20375C5.44879 6.12425 5.66354 6.13133 5.87504 6.225L7.77129 7.02875C8.06995 6.78008 8.39304 6.55575 8.74054 6.35575C9.08787 6.15575 9.42562 6.00125 9.75379 5.89225L10.0365 3.8C10.0775 3.57183 10.1836 3.38142 10.3548 3.22875C10.526 3.07625 10.7275 3 10.9595 3H13.0405C13.2725 3 13.4741 3.07625 13.6453 3.22875C13.8165 3.38142 13.9225 3.57183 13.9635 3.8L14.227 5.9115C14.6104 6.04617 14.9491 6.20067 15.2433 6.375C15.5375 6.54933 15.8404 6.76725 16.152 7.02875L18.1443 6.225C18.3558 6.13133 18.5705 6.12425 18.7885 6.20375C19.0065 6.28325 19.1745 6.4185 19.2923 6.6095L20.352 8.42875C20.4699 8.63258 20.5045 8.84542 20.4558 9.06725C20.4071 9.28908 20.2911 9.47117 20.1078 9.6135L18.3595 10.9212C18.4147 11.1276 18.4455 11.317 18.452 11.4895C18.4584 11.6618 18.4615 11.832 18.4615 12C18.4615 12.1552 18.4551 12.3189 18.4423 12.4913C18.4295 12.6637 18.4 12.8724 18.3538 13.1173L20.0443 14.3865C20.2276 14.5288 20.3469 14.7109 20.402 14.9327C20.457 15.1546 20.4256 15.3674 20.3078 15.5712L19.2423 17.4095C19.1245 17.6135 18.9533 17.752 18.7288 17.825C18.5045 17.898 18.2865 17.8878 18.075 17.7943L16.152 16.9712C15.8404 17.2327 15.5269 17.4571 15.2115 17.6443C14.8962 17.8314 14.568 17.9795 14.227 18.0885L13.9635 20.2C13.9225 20.4282 13.8165 20.6186 13.6453 20.7712C13.4741 20.9237 13.2725 21 13.0405 21H10.9595ZM11.973 14.5C12.6705 14.5 13.2616 14.2577 13.7463 13.773C14.2308 13.2885 14.473 12.6975 14.473 12C14.473 11.3025 14.2308 10.7115 13.7463 10.227C13.2616 9.74233 12.6705 9.5 11.973 9.5C11.2719 9.5 10.6799 9.74233 10.197 10.227C9.71437 10.7115 9.47304 11.3025 9.47304 12C9.47304 12.6975 9.71437 13.2885 10.197 13.773C10.6799 14.2577 11.2719 14.5 11.973 14.5Z" fill="white"/>
</g>
</svg>
