<svg width="18" height="18" viewBox="0 0 18 18" fill="none" xmlns="http://www.w3.org/2000/svg">
<path fill-rule="evenodd" clip-rule="evenodd" d="M13.3165 2.67501C13.3165 1.56667 14.2165 0.666672 15.3248 0.666672C16.4331 0.666672 17.3331 1.56667 17.3331 2.67501C17.3331 3.78334 16.4331 4.68334 15.3248 4.68334C14.2165 4.68334 13.3165 3.78334 13.3165 2.67501ZM10.108 11.2994L12.5164 8.19192L12.483 8.20859C12.6164 8.02525 12.6414 7.79192 12.5497 7.58359C12.4589 7.37525 12.258 7.23359 12.0422 7.21692C11.8164 7.19192 11.5922 7.29192 11.458 7.47525L9.44222 10.0836L7.13305 8.26692C6.99138 8.15859 6.82472 8.11609 6.65805 8.13359C6.49222 8.15859 6.34222 8.24942 6.24138 8.38275L3.77555 11.5919L3.72471 11.6669C3.58305 11.9328 3.64971 12.2744 3.89972 12.4586C4.01638 12.5336 4.14138 12.5836 4.28305 12.5836C4.47555 12.5919 4.65805 12.4911 4.77471 12.3336L6.86638 9.64109L9.24138 11.4253L9.31638 11.4744C9.58305 11.6161 9.91638 11.5503 10.108 11.2994ZM11.8747 2.15026C11.8414 2.35859 11.8247 2.56692 11.8247 2.77525C11.8247 4.65025 13.3414 6.16609 15.208 6.16609C15.4164 6.16609 15.6164 6.14192 15.8247 6.10859V12.8328C15.8247 15.6586 14.158 17.3336 11.3247 17.3336H5.16722C2.33305 17.3336 0.666382 15.6586 0.666382 12.8328V6.66692C0.666382 3.83359 2.33305 2.15026 5.16722 2.15026H11.8747Z" fill="#9E9E9E"/>
</svg>
