<svg width="52" height="61" viewBox="0 0 52 61" fill="none" xmlns="http://www.w3.org/2000/svg">
<mask id="path-1-inside-1_70_873" fill="white">
<path fill-rule="evenodd" clip-rule="evenodd" d="M29.0978 56.6623C31.2569 52.947 34.9447 50.4669 38.6986 48.3756C46.6359 43.9536 52 35.5143 52 25.8303C52 11.5646 40.3594 0 26 0C11.6406 0 0 11.5646 0 25.8303C0 35.5145 5.36431 43.9539 13.3019 48.3759C17.056 50.4672 20.7441 52.9474 22.9033 56.6629L25.1358 60.5044C25.5213 61.1678 26.4795 61.1678 26.865 60.5044L29.0978 56.6623Z"/>
</mask>
<path fill-rule="evenodd" clip-rule="evenodd" d="M29.0978 56.6623C31.2569 52.947 34.9447 50.4669 38.6986 48.3756C46.6359 43.9536 52 35.5143 52 25.8303C52 11.5646 40.3594 0 26 0C11.6406 0 0 11.5646 0 25.8303C0 35.5145 5.36431 43.9539 13.3019 48.3759C17.056 50.4672 20.7441 52.9474 22.9033 56.6629L25.1358 60.5044C25.5213 61.1678 26.4795 61.1678 26.865 60.5044L29.0978 56.6623Z" fill="#782EB3"/>
<path d="M25.1358 60.5044L26.0004 60.002L26.0004 60.002L25.1358 60.5044ZM26.865 60.5044L26.0004 60.002L26.865 60.5044ZM38.6986 48.3756L38.2119 47.502L38.6986 48.3756ZM29.0978 56.6623L28.2332 56.1599L29.0978 56.6623ZM51 25.8303C51 35.1348 45.8473 43.2482 38.2119 47.502L39.1853 49.2491C47.4246 44.6589 53 35.8938 53 25.8303H51ZM26 1C39.8133 1 51 12.1231 51 25.8303H53C53 11.0062 40.9055 -1 26 -1V1ZM1 25.8303C1 12.1231 12.1867 1 26 1V-1C11.0945 -1 -1 11.0062 -1 25.8303H1ZM13.7886 47.5023C6.15295 43.2486 1 35.135 1 25.8303H-1C-1 35.894 4.57566 44.6593 12.8153 49.2495L13.7886 47.5023ZM26.0004 60.002L23.7679 56.1604L22.0387 57.1653L24.2712 61.0069L26.0004 60.002ZM26.0004 60.002H26.0004L24.2712 61.0069C25.0422 62.3337 26.9585 62.3337 27.7296 61.0069L26.0004 60.002ZM28.2332 56.1599L26.0004 60.002L27.7296 61.0069L29.9624 57.1648L28.2332 56.1599ZM12.8153 49.2495C16.5473 51.3286 20.0245 53.6993 22.0387 57.1653L23.7679 56.1604C21.4637 52.1954 17.5647 49.6059 13.7886 47.5023L12.8153 49.2495ZM38.2119 47.502C34.436 49.6056 30.5373 52.1951 28.2332 56.1599L29.9624 57.1648C31.9765 53.699 35.4534 51.3282 39.1853 49.2491L38.2119 47.502Z" fill="white" mask="url(#path-1-inside-1_70_873)"/>
<circle cx="26" cy="26" r="20" fill="white"/>
</svg>
