<svg width="62" height="60" viewBox="0 0 62 60" fill="none" xmlns="http://www.w3.org/2000/svg">
<ellipse cx="20.8334" cy="58.8333" rx="1.16667" ry="1.16667" fill="white"/>
<ellipse cx="40.6666" cy="57" rx="0.333334" ry="0.333332" fill="white"/>
<ellipse cx="3.33341" cy="44.3333" rx="1.66667" ry="1.66667" fill="white"/>
<circle cx="31.8333" cy="30.5" r="23.5" fill="white"/>
<ellipse cx="55.1666" cy="53.5" rx="0.833334" ry="0.833332" fill="white"/>
<circle cx="56.8333" cy="36.8333" r="0.833334" fill="white"/>
<ellipse cx="0.333333" cy="25" rx="0.333333" ry="0.333334" fill="white"/>
<path d="M38.4054 32.4108L38.5588 30.99C38.6396 30.2316 38.6938 29.7316 38.6513 29.4166H38.6663C38.9515 29.4166 39.2281 29.3189 39.4502 29.14C39.6723 28.961 39.8266 28.7114 39.8873 28.4327C39.948 28.154 39.9116 27.8629 39.784 27.6078C39.6565 27.3526 39.4456 27.1488 39.1862 27.0301C38.9268 26.9113 38.6347 26.8849 38.3582 26.9551C38.0817 27.0253 37.8376 27.188 37.6663 27.4161C37.4951 27.6442 37.407 27.924 37.4167 28.2091C37.4263 28.4942 37.5332 28.7674 37.7196 28.9833C37.4479 29.1508 37.0929 29.505 36.5588 30.0375C36.1463 30.4483 35.9404 30.6533 35.7104 30.685C35.583 30.7026 35.4531 30.6844 35.3354 30.6325C35.1238 30.5391 34.9821 30.2858 34.6996 29.7783L33.2079 27.1041C33.0338 26.7916 32.8879 26.5291 32.7563 26.3191C33.0898 26.1492 33.3564 25.8719 33.5132 25.5319C33.6699 25.1919 33.7076 24.8091 33.6202 24.4451C33.5328 24.081 33.3254 23.757 33.0314 23.5253C32.7374 23.2935 32.374 23.1675 31.9996 23.1675C31.6252 23.1675 31.2618 23.2935 30.9678 23.5253C30.6738 23.757 30.4664 24.081 30.379 24.4451C30.2916 24.8091 30.3293 25.1919 30.486 25.5319C30.6427 25.8719 30.9094 26.1492 31.2429 26.3191C31.1113 26.53 30.9654 26.7916 30.7904 27.1041L29.2996 29.7783C29.0163 30.2858 28.8746 30.5391 28.6629 30.6325C28.5452 30.6844 28.4154 30.7026 28.2879 30.685C28.0588 30.6533 27.8529 30.4483 27.4404 30.0375C26.9063 29.505 26.5513 29.1508 26.2796 28.9833C26.466 28.7674 26.5728 28.4942 26.5825 28.2091C26.5922 27.924 26.5041 27.6442 26.3328 27.4161C26.1616 27.188 25.9174 27.0253 25.641 26.9551C25.3645 26.8849 25.0723 26.9113 24.813 27.0301C24.5536 27.1488 24.3427 27.3526 24.2151 27.6078C24.0876 27.8629 24.0512 28.154 24.1119 28.4327C24.1726 28.7114 24.3268 28.961 24.5489 29.14C24.771 29.3189 25.0477 29.4166 25.3329 29.4166H25.3479C25.3054 29.7316 25.3596 30.2325 25.4404 30.99L25.5938 32.4108C25.6788 33.1991 25.7488 33.95 25.8354 34.625H38.1638C38.2504 33.95 38.3204 33.2 38.4054 32.4108ZM31.0929 38.1666H32.9063C35.2696 38.1666 36.4513 38.1666 37.2396 37.4608C37.5838 37.1525 37.8013 36.5975 37.9588 35.875H26.0404C26.1979 36.5975 26.4154 37.1533 26.7596 37.4608C27.5479 38.1666 28.7296 38.1666 31.0929 38.1666Z" fill="#FF981F"/>
<ellipse cx="59.5" cy="9.16666" rx="2.5" ry="2.5" fill="white"/>
<ellipse cx="35.5001" cy="1.5" rx="0.833332" ry="0.833333" fill="white"/>
<ellipse cx="6.66659" cy="3.33333" rx="3.33333" ry="3.33333" fill="white"/>
</svg>
