<svg width="32" height="32" viewBox="0 0 32 32" fill="none" xmlns="http://www.w3.org/2000/svg">
<path d="M2.31575 20.1709C2.22412 20.2364 2.14835 20.3216 2.09402 20.4202C2.03968 20.5188 2.00816 20.6284 2.00178 20.7408C1.99514 20.8567 2.0141 20.9727 2.0573 21.0804C2.1005 21.1882 2.16689 21.2851 2.25176 21.3643C4.58079 23.6195 6.39692 26.3497 7.57668 29.3694C7.66075 29.5696 7.80622 29.738 7.99213 29.8503C8.17803 29.9625 8.39478 30.0128 8.61113 29.994C8.82748 29.9751 9.03225 29.8881 9.19595 29.7454C9.35964 29.6027 9.4738 29.4117 9.52197 29.1999C10.0589 26.7782 11.5943 23.9055 14.215 20.4194C14.2637 20.356 14.3265 20.3049 14.3985 20.2702C14.4704 20.2355 14.5495 20.2181 14.6294 20.2194C14.6834 20.2244 20.2923 20.3494 23.1855 17.5802C24.8913 15.9479 25.3698 14.2555 26.5251 10.1675L26.9911 8.52815C27.6665 6.1689 28.6909 4.27161 29.9483 3.04024C29.9699 3.02124 29.9855 2.99644 29.9934 2.96878C30.0013 2.94112 30.0011 2.91178 29.9928 2.88425C29.9853 2.8568 29.9703 2.83202 29.9493 2.81281C29.9283 2.7936 29.9023 2.78075 29.8743 2.77577C27.1141 2.14533 20.1908 0.984459 15.6353 3.82065C13.4111 5.20101 8.67956 9.35556 11.3873 18.5851C14.6904 13.8238 18.8837 9.74681 23.7359 6.57886C23.7914 6.54216 23.8535 6.51688 23.9188 6.50449C23.9841 6.4921 24.0512 6.49285 24.1162 6.50671C24.1812 6.52056 24.2428 6.54724 24.2974 6.58517C24.352 6.62311 24.3984 6.67155 24.434 6.72765C24.4697 6.78375 24.4938 6.8464 24.5049 6.91192C24.516 6.97744 24.514 7.04453 24.4989 7.10925C24.4838 7.17397 24.4559 7.23503 24.417 7.28887C24.378 7.3427 24.3287 7.38822 24.2719 7.42277C19.2417 10.6972 14.9456 14.9796 11.6552 19.9994C11.6522 20.0044 11.6477 20.0079 11.6442 20.0129C11.6407 20.0179 11.6382 20.0259 11.6337 20.0324C10.4901 21.5823 9.59884 23.3034 8.99303 25.1319C8.96529 25.2329 8.90653 25.3226 8.82505 25.3884C8.74356 25.4542 8.64346 25.4928 8.53889 25.4986C8.43431 25.5045 8.33053 25.4773 8.24221 25.421C8.15388 25.3647 8.08547 25.2821 8.04663 25.1849C7.05824 22.7106 5.21994 20.0294 4.29704 19.373C4.16427 19.2777 4.00498 19.2265 3.84158 19.2265C3.66711 19.227 3.4975 19.284 3.35814 19.389L2.31575 20.1709Z" fill="#C7A2DC"/>
</svg>
