<svg width="40" height="40" viewBox="0 0 40 40" fill="none" xmlns="http://www.w3.org/2000/svg">
<g clip-path="url(#clip0_691_2573)">
<path d="M38.7376 7.9209H37.6738V4.35879C37.6737 4.1819 37.6035 4.01226 37.4784 3.88718C37.3533 3.7621 37.1837 3.69183 37.0068 3.69183H35.1847C35.0078 3.69183 34.8382 3.7621 34.7131 3.88718C34.588 4.01226 34.5177 4.1819 34.5177 4.35879V7.9209H32.1888C32.2859 6.90074 31.5346 6.00746 30.5393 5.90222C29.5155 5.79426 28.6076 6.54261 28.501 7.55058L28.4619 7.92082H25.2519C24.3049 9.96543 22.2611 11.2855 19.9971 11.2855C17.702 11.2855 15.6755 9.93543 14.7423 7.92082H11.5441L11.5049 7.55058C11.3975 6.53511 10.4813 5.7948 9.46664 5.90215C8.47266 6.00738 7.71992 6.89965 7.81719 7.92097H5.48211V4.35886C5.48211 4.18198 5.41184 4.01234 5.28676 3.88726C5.16169 3.76218 4.99204 3.69191 4.81516 3.69191H2.99305C2.81616 3.69191 2.64652 3.76218 2.52144 3.88726C2.39636 4.01234 2.32609 4.18198 2.32609 4.35886V7.92097H1.26242C0.565156 7.9209 0 8.48605 0 9.18332C0 9.88051 0.565156 10.4457 1.26242 10.4457H2.32617V14.0079C2.32617 14.1847 2.39644 14.3544 2.52152 14.4795C2.6466 14.6045 2.81624 14.6748 2.99312 14.6748H4.81523C4.99212 14.6748 5.16176 14.6045 5.28684 14.4795C5.41192 14.3544 5.48219 14.1847 5.48219 14.0079V10.4457H8.08305C8.16297 11.2011 8.72781 16.5423 8.81125 17.3322C8.97883 18.9173 10.9757 19.5875 12.0505 18.357L14.6556 15.3757V22.4682L7.91484 25.2068C7.52806 25.364 7.18872 25.6189 6.93007 25.9466C6.67142 26.2744 6.50234 26.6636 6.43938 27.0764L5.09453 35.8929C4.89375 37.2089 5.79781 38.4384 7.11375 38.6391C8.42969 38.8398 9.65922 37.9358 9.85992 36.6199L10.9984 29.1571L17.2341 26.6236H22.7696L29.0054 29.1571L30.1438 36.6199C30.3446 37.936 31.5741 38.8398 32.89 38.6391C34.2059 38.4383 35.1099 37.2089 34.9092 35.8929L33.5643 27.0763C33.5013 26.6636 33.3322 26.2743 33.0736 25.9466C32.8149 25.6188 32.4756 25.3639 32.0888 25.2068L25.2946 22.4463V15.3121L27.9552 18.3569C29.0012 19.5543 31.022 18.961 31.1944 17.3321L31.9227 10.4457H34.5178V14.0078C34.5178 14.1847 34.5881 14.3543 34.7132 14.4794C34.8382 14.6045 35.0079 14.6747 35.1848 14.6747H37.0069C37.1838 14.6747 37.3534 14.6045 37.4785 14.4794C37.6036 14.3543 37.6738 14.1847 37.6738 14.0078V10.4457H38.7377C39.4348 10.4457 40.0001 9.88051 40.0001 9.18324C40 8.48605 39.4348 7.9209 38.7376 7.9209ZM12.0516 12.7214L11.8109 10.4457H14.0402C13.3774 11.2043 12.7145 11.9629 12.0516 12.7214ZM27.9541 12.7214L25.9655 10.4457H28.1947L27.9541 12.7214Z" fill="#C7A2DC"/>
<path d="M19.9968 9.65924C22.2959 9.65924 24.1596 7.79549 24.1596 5.49643C24.1596 3.19737 22.2959 1.33362 19.9968 1.33362C17.6977 1.33362 15.834 3.19737 15.834 5.49643C15.834 7.79549 17.6977 9.65924 19.9968 9.65924Z" fill="#C7A2DC"/>
</g>
<defs>
<clipPath id="clip0_691_2573">
<rect width="40" height="40" fill="white"/>
</clipPath>
</defs>
</svg>
